<?xml version="1.0" encoding="UTF-8" standalone="no"?>
<!DOCTYPE svg PUBLIC "-//W3C//DTD SVG 1.1//EN"
 "http://www.w3.org/Graphics/SVG/1.1/DTD/svg11.dtd">
<!-- Generated by graphviz version 2.40.1 (20161225.0304)
 -->
<!-- Title: dependencies Pages: 1 -->
<svg width="544pt" height="211pt"
 viewBox="0.00 0.00 544.00 211.00" xmlns="http://www.w3.org/2000/svg" xmlns:xlink="http://www.w3.org/1999/xlink">
<g id="graph0" class="graph" transform="scale(1 1) rotate(0) translate(4 207)">
<title>dependencies</title>
<polygon fill="#ffffff" stroke="transparent" points="-4,4 -4,-207 540,-207 540,4 -4,4"/>
<text text-anchor="start" x="247.0091" y="-42.4" font-family="sans-serif" font-weight="bold" font-size="14.00" fill="#000000">Legend</text>
<polygon fill="#ffffb3" stroke="transparent" points="34,-10 34,-30 54,-30 54,-10 34,-10"/>
<text text-anchor="start" x="57.629" y="-15.4" font-family="sans-serif" font-size="14.00" fill="#000000"> &#160;Declarations</text>
<polygon fill="#8dd3c7" stroke="transparent" points="147,-10 147,-30 167,-30 167,-10 147,-10"/>
<text text-anchor="start" x="170.7251" y="-15.4" font-family="sans-serif" font-size="14.00" fill="#000000"> &#160;Module</text>
<polygon fill="#80b1d3" stroke="transparent" points="233,-10 233,-30 253,-30 253,-10 233,-10"/>
<text text-anchor="start" x="256.7812" y="-15.4" font-family="sans-serif" font-size="14.00" fill="#000000"> &#160;Bootstrap</text>
<polygon fill="#fdb462" stroke="transparent" points="330,-10 330,-30 350,-30 350,-10 330,-10"/>
<text text-anchor="start" x="353.6732" y="-15.4" font-family="sans-serif" font-size="14.00" fill="#000000"> &#160;Providers</text>
<polygon fill="#fb8072" stroke="transparent" points="426,-10 426,-30 446,-30 446,-10 426,-10"/>
<text text-anchor="start" x="449.7258" y="-15.4" font-family="sans-serif" font-size="14.00" fill="#000000"> &#160;Exports</text>
<g id="clust1" class="cluster">
<title>cluster_AccountModule</title>
<polygon fill="none" stroke="#000000" stroke-dasharray="1,5" points="8,-70 8,-195 528,-195 528,-70 8,-70"/>
</g>
<g id="clust2" class="cluster">
<title>cluster_AccountModule_declarations</title>
<polygon fill="none" stroke="#000000" points="342,-78 342,-130 520,-130 520,-78 342,-78"/>
</g>
<g id="clust4" class="cluster">
<title>cluster_AccountModule_imports</title>
<polygon fill="none" stroke="#000000" points="166,-78 166,-130 334,-130 334,-78 166,-78"/>
</g>
<g id="clust7" class="cluster">
<title>cluster_AccountModule_providers</title>
<polygon fill="none" stroke="#000000" points="16,-78 16,-130 158,-130 158,-78 16,-78"/>
</g>
<!-- AccountLoginComponent -->
<g id="node1" class="node">
<title>AccountLoginComponent</title>
<polygon fill="#ffffb3" stroke="#000000" points="512.2021,-122 349.7979,-122 349.7979,-86 512.2021,-86 512.2021,-122"/>
<text text-anchor="middle" x="431" y="-99.8" font-family="Times,serif" font-size="14.00" fill="#000000">AccountLoginComponent</text>
</g>
<!-- AccountModule -->
<g id="node2" class="node">
<title>AccountModule</title>
<polygon fill="#8dd3c7" stroke="#000000" points="303.4762,-187 300.4762,-191 279.4762,-191 276.4762,-187 196.5238,-187 196.5238,-151 303.4762,-151 303.4762,-187"/>
<text text-anchor="middle" x="250" y="-164.8" font-family="Times,serif" font-size="14.00" fill="#000000">AccountModule</text>
</g>
<!-- AccountLoginComponent&#45;&gt;AccountModule -->
<g id="edge1" class="edge">
<title>AccountLoginComponent&#45;&gt;AccountModule</title>
<path fill="none" stroke="#000000" d="M431,-122.1061C431,-141.3391 431,-169 431,-169 431,-169 313.8159,-169 313.8159,-169"/>
<polygon fill="#000000" stroke="#000000" points="313.8159,-165.5001 303.8159,-169 313.8159,-172.5001 313.8159,-165.5001"/>
</g>
<!-- AccountRoutingModule -->
<g id="node3" class="node">
<title>AccountRoutingModule</title>
<polygon fill="#8dd3c7" stroke="#000000" points="326.094,-122 323.094,-126 302.094,-126 299.094,-122 173.906,-122 173.906,-86 326.094,-86 326.094,-122"/>
<text text-anchor="middle" x="250" y="-99.8" font-family="Times,serif" font-size="14.00" fill="#000000">AccountRoutingModule</text>
</g>
<!-- AccountRoutingModule&#45;&gt;AccountModule -->
<g id="edge2" class="edge">
<title>AccountRoutingModule&#45;&gt;AccountModule</title>
<path fill="none" stroke="#000000" d="M250,-122.1061C250,-122.1061 250,-140.991 250,-140.991"/>
<polygon fill="#000000" stroke="#000000" points="246.5001,-140.9909 250,-150.991 253.5001,-140.991 246.5001,-140.9909"/>
</g>
<!-- LoginService -->
<g id="node4" class="node">
<title>LoginService</title>
<ellipse fill="#fdb462" stroke="#000000" cx="87" cy="-104" rx="63.1209" ry="18"/>
<text text-anchor="middle" x="87" y="-99.8" font-family="Times,serif" font-size="14.00" fill="#000000">LoginService</text>
</g>
<!-- LoginService&#45;&gt;AccountModule -->
<g id="edge3" class="edge">
<title>LoginService&#45;&gt;AccountModule</title>
<path fill="none" stroke="#000000" d="M87,-122.1061C87,-141.3391 87,-169 87,-169 87,-169 186.176,-169 186.176,-169"/>
<polygon fill="#000000" stroke="#000000" points="186.176,-172.5001 196.176,-169 186.1759,-165.5001 186.176,-172.5001"/>
</g>
</g>
</svg>
