<?xml version="1.0" encoding="UTF-8" standalone="no"?>
<!DOCTYPE svg PUBLIC "-//W3C//DTD SVG 1.1//EN"
 "http://www.w3.org/Graphics/SVG/1.1/DTD/svg11.dtd">
<!-- Generated by graphviz version 2.40.1 (20161225.0304)
 -->
<!-- Title: dependencies Pages: 1 -->
<svg width="504pt" height="284pt"
 viewBox="0.00 0.00 504.00 284.00" xmlns="http://www.w3.org/2000/svg" xmlns:xlink="http://www.w3.org/1999/xlink">
<g id="graph0" class="graph" transform="scale(1 1) rotate(0) translate(4 280)">
<title>dependencies</title>
<polygon fill="#ffffff" stroke="transparent" points="-4,4 -4,-280 500,-280 500,4 -4,4"/>
<text text-anchor="start" x="227.0091" y="-42.4" font-family="sans-serif" font-weight="bold" font-size="14.00" fill="#000000">Legend</text>
<polygon fill="#ffffb3" stroke="transparent" points="14,-10 14,-30 34,-30 34,-10 14,-10"/>
<text text-anchor="start" x="37.629" y="-15.4" font-family="sans-serif" font-size="14.00" fill="#000000"> &#160;Declarations</text>
<polygon fill="#8dd3c7" stroke="transparent" points="127,-10 127,-30 147,-30 147,-10 127,-10"/>
<text text-anchor="start" x="150.7251" y="-15.4" font-family="sans-serif" font-size="14.00" fill="#000000"> &#160;Module</text>
<polygon fill="#80b1d3" stroke="transparent" points="213,-10 213,-30 233,-30 233,-10 213,-10"/>
<text text-anchor="start" x="236.7812" y="-15.4" font-family="sans-serif" font-size="14.00" fill="#000000"> &#160;Bootstrap</text>
<polygon fill="#fdb462" stroke="transparent" points="310,-10 310,-30 330,-30 330,-10 310,-10"/>
<text text-anchor="start" x="333.6732" y="-15.4" font-family="sans-serif" font-size="14.00" fill="#000000"> &#160;Providers</text>
<polygon fill="#fb8072" stroke="transparent" points="406,-10 406,-30 426,-30 426,-10 406,-10"/>
<text text-anchor="start" x="429.7258" y="-15.4" font-family="sans-serif" font-size="14.00" fill="#000000"> &#160;Exports</text>
<g id="clust1" class="cluster">
<title>cluster_NotificationModule</title>
<polygon fill="none" stroke="#000000" stroke-dasharray="1,5" points="59,-70 59,-268 437,-268 437,-70 59,-70"/>
</g>
<g id="clust2" class="cluster">
<title>cluster_NotificationModule_declarations</title>
<polygon fill="none" stroke="#000000" points="265,-78 265,-130 429,-130 429,-78 265,-78"/>
</g>
<g id="clust5" class="cluster">
<title>cluster_NotificationModule_exports</title>
<polygon fill="none" stroke="#000000" points="169,-208 169,-260 337,-260 337,-208 169,-208"/>
</g>
<g id="clust7" class="cluster">
<title>cluster_NotificationModule_providers</title>
<polygon fill="none" stroke="#000000" points="67,-78 67,-130 257,-130 257,-78 67,-78"/>
</g>
<!-- NotificationComponent -->
<g id="node1" class="node">
<title>NotificationComponent</title>
<polygon fill="#ffffb3" stroke="#000000" points="421.4818,-122 272.5182,-122 272.5182,-86 421.4818,-86 421.4818,-122"/>
<text text-anchor="middle" x="347" y="-99.8" font-family="Times,serif" font-size="14.00" fill="#000000">NotificationComponent</text>
</g>
<!-- NotificationModule -->
<g id="node2" class="node">
<title>NotificationModule</title>
<polygon fill="#8dd3c7" stroke="#000000" points="316.6994,-187 313.6994,-191 292.6994,-191 289.6994,-187 189.3006,-187 189.3006,-151 316.6994,-151 316.6994,-187"/>
<text text-anchor="middle" x="253" y="-164.8" font-family="Times,serif" font-size="14.00" fill="#000000">NotificationModule</text>
</g>
<!-- NotificationComponent&#45;&gt;NotificationModule -->
<g id="edge1" class="edge">
<title>NotificationComponent&#45;&gt;NotificationModule</title>
<path fill="none" stroke="#000000" d="M294.5544,-122.1061C294.5544,-122.1061 294.5544,-140.991 294.5544,-140.991"/>
<polygon fill="#000000" stroke="#000000" points="291.0544,-140.9909 294.5544,-150.991 298.0544,-140.991 291.0544,-140.9909"/>
</g>
<!-- NotificationComponent  -->
<g id="node3" class="node">
<title>NotificationComponent </title>
<polygon fill="#fb8072" stroke="#000000" points="329.4826,-252 176.5174,-252 176.5174,-216 329.4826,-216 329.4826,-252"/>
<text text-anchor="middle" x="253" y="-229.8" font-family="Times,serif" font-size="14.00" fill="#000000">NotificationComponent </text>
</g>
<!-- NotificationModule&#45;&gt;NotificationComponent  -->
<g id="edge2" class="edge">
<title>NotificationModule&#45;&gt;NotificationComponent </title>
<path fill="none" stroke="#000000" stroke-dasharray="5,2" d="M253,-187.1061C253,-187.1061 253,-205.991 253,-205.991"/>
<polygon fill="#000000" stroke="#000000" points="249.5001,-205.9909 253,-215.991 256.5001,-205.991 249.5001,-205.9909"/>
</g>
<!-- NotificationService -->
<g id="node4" class="node">
<title>NotificationService</title>
<ellipse fill="#fdb462" stroke="#000000" cx="162" cy="-104" rx="86.8107" ry="18"/>
<text text-anchor="middle" x="162" y="-99.8" font-family="Times,serif" font-size="14.00" fill="#000000">NotificationService</text>
</g>
<!-- NotificationService&#45;&gt;NotificationModule -->
<g id="edge3" class="edge">
<title>NotificationService&#45;&gt;NotificationModule</title>
<path fill="none" stroke="#000000" d="M219.0278,-117.7848C219.0278,-117.7848 219.0278,-140.5475 219.0278,-140.5475"/>
<polygon fill="#000000" stroke="#000000" points="215.5279,-140.5474 219.0278,-150.5475 222.5279,-140.5475 215.5279,-140.5474"/>
</g>
</g>
</svg>
