<?xml version="1.0" encoding="UTF-8" standalone="no"?>
<!DOCTYPE svg PUBLIC "-//W3C//DTD SVG 1.1//EN"
 "http://www.w3.org/Graphics/SVG/1.1/DTD/svg11.dtd">
<!-- Generated by graphviz version 2.40.1 (20161225.0304)
 -->
<!-- Title: dependencies Pages: 1 -->
<svg width="810pt" height="284pt"
 viewBox="0.00 0.00 810.00 284.00" xmlns="http://www.w3.org/2000/svg" xmlns:xlink="http://www.w3.org/1999/xlink">
<g id="graph0" class="graph" transform="scale(1 1) rotate(0) translate(4 280)">
<title>dependencies</title>
<polygon fill="#ffffff" stroke="transparent" points="-4,4 -4,-280 806,-280 806,4 -4,4"/>
<text text-anchor="start" x="380.0091" y="-42.4" font-family="sans-serif" font-weight="bold" font-size="14.00" fill="#000000">Legend</text>
<polygon fill="#ffffb3" stroke="transparent" points="167,-10 167,-30 187,-30 187,-10 167,-10"/>
<text text-anchor="start" x="190.629" y="-15.4" font-family="sans-serif" font-size="14.00" fill="#000000"> &#160;Declarations</text>
<polygon fill="#8dd3c7" stroke="transparent" points="280,-10 280,-30 300,-30 300,-10 280,-10"/>
<text text-anchor="start" x="303.7251" y="-15.4" font-family="sans-serif" font-size="14.00" fill="#000000"> &#160;Module</text>
<polygon fill="#80b1d3" stroke="transparent" points="366,-10 366,-30 386,-30 386,-10 366,-10"/>
<text text-anchor="start" x="389.7812" y="-15.4" font-family="sans-serif" font-size="14.00" fill="#000000"> &#160;Bootstrap</text>
<polygon fill="#fdb462" stroke="transparent" points="463,-10 463,-30 483,-30 483,-10 463,-10"/>
<text text-anchor="start" x="486.6732" y="-15.4" font-family="sans-serif" font-size="14.00" fill="#000000"> &#160;Providers</text>
<polygon fill="#fb8072" stroke="transparent" points="559,-10 559,-30 579,-30 579,-10 559,-10"/>
<text text-anchor="start" x="582.7258" y="-15.4" font-family="sans-serif" font-size="14.00" fill="#000000"> &#160;Exports</text>
<g id="clust1" class="cluster">
<title>cluster_PersonModule</title>
<polygon fill="none" stroke="#000000" stroke-dasharray="1,5" points="8,-70 8,-268 794,-268 794,-70 8,-70"/>
</g>
<g id="clust2" class="cluster">
<title>cluster_PersonModule_declarations</title>
<polygon fill="none" stroke="#000000" points="454,-78 454,-130 786,-130 786,-78 454,-78"/>
</g>
<g id="clust5" class="cluster">
<title>cluster_PersonModule_imports</title>
<polygon fill="none" stroke="#000000" points="324,-78 324,-130 446,-130 446,-78 324,-78"/>
</g>
<g id="clust6" class="cluster">
<title>cluster_PersonModule_exports</title>
<polygon fill="none" stroke="#000000" points="135,-208 135,-260 473,-260 473,-208 135,-208"/>
</g>
<g id="clust7" class="cluster">
<title>cluster_PersonModule_bootstrap</title>
<polygon fill="none" stroke="#000000" points="481,-208 481,-260 605,-260 605,-208 481,-208"/>
</g>
<g id="clust8" class="cluster">
<title>cluster_PersonModule_providers</title>
<polygon fill="none" stroke="#000000" points="16,-78 16,-130 316,-130 316,-78 16,-78"/>
</g>
<!-- PersonCreateComponent -->
<g id="node1" class="node">
<title>PersonCreateComponent</title>
<polygon fill="#ffffb3" stroke="#000000" points="777.9664,-122 622.0336,-122 622.0336,-86 777.9664,-86 777.9664,-122"/>
<text text-anchor="middle" x="700" y="-99.8" font-family="Times,serif" font-size="14.00" fill="#000000">PersonCreateComponent</text>
</g>
<!-- PersonModule -->
<g id="node3" class="node">
<title>PersonModule</title>
<polygon fill="#8dd3c7" stroke="#000000" points="433.6528,-187 430.6528,-191 409.6528,-191 406.6528,-187 336.3472,-187 336.3472,-151 433.6528,-151 433.6528,-187"/>
<text text-anchor="middle" x="385" y="-164.8" font-family="Times,serif" font-size="14.00" fill="#000000">PersonModule</text>
</g>
<!-- PersonCreateComponent&#45;&gt;PersonModule -->
<g id="edge1" class="edge">
<title>PersonCreateComponent&#45;&gt;PersonModule</title>
<path fill="none" stroke="#000000" d="M700,-122.1061C700,-141.3391 700,-169 700,-169 700,-169 443.8731,-169 443.8731,-169"/>
<polygon fill="#000000" stroke="#000000" points="443.8732,-165.5001 433.8731,-169 443.8731,-172.5001 443.8732,-165.5001"/>
</g>
<!-- PersonListComponent -->
<g id="node2" class="node">
<title>PersonListComponent</title>
<polygon fill="#ffffb3" stroke="#000000" points="603.7134,-122 462.2866,-122 462.2866,-86 603.7134,-86 603.7134,-122"/>
<text text-anchor="middle" x="533" y="-99.8" font-family="Times,serif" font-size="14.00" fill="#000000">PersonListComponent</text>
</g>
<!-- PersonListComponent&#45;&gt;PersonModule -->
<g id="edge2" class="edge">
<title>PersonListComponent&#45;&gt;PersonModule</title>
<path fill="none" stroke="#000000" d="M476.6319,-122.027C476.6319,-138.3976 476.6319,-160 476.6319,-160 476.6319,-160 443.7671,-160 443.7671,-160"/>
<polygon fill="#000000" stroke="#000000" points="443.7671,-156.5001 433.7671,-160 443.7671,-163.5001 443.7671,-156.5001"/>
</g>
<!-- PersonCreateComponent  -->
<g id="node5" class="node">
<title>PersonCreateComponent </title>
<polygon fill="#fb8072" stroke="#000000" points="464.9671,-252 305.0329,-252 305.0329,-216 464.9671,-216 464.9671,-252"/>
<text text-anchor="middle" x="385" y="-229.8" font-family="Times,serif" font-size="14.00" fill="#000000">PersonCreateComponent </text>
</g>
<!-- PersonModule&#45;&gt;PersonCreateComponent  -->
<g id="edge4" class="edge">
<title>PersonModule&#45;&gt;PersonCreateComponent </title>
<path fill="none" stroke="#000000" stroke-dasharray="5,2" d="M385,-187.1061C385,-187.1061 385,-205.991 385,-205.991"/>
<polygon fill="#000000" stroke="#000000" points="381.5001,-205.9909 385,-215.991 388.5001,-205.991 381.5001,-205.9909"/>
</g>
<!-- PersonListComponent  -->
<g id="node6" class="node">
<title>PersonListComponent </title>
<polygon fill="#fb8072" stroke="#000000" points="287.2135,-252 142.7865,-252 142.7865,-216 287.2135,-216 287.2135,-252"/>
<text text-anchor="middle" x="215" y="-229.8" font-family="Times,serif" font-size="14.00" fill="#000000">PersonListComponent </text>
</g>
<!-- PersonModule&#45;&gt;PersonListComponent  -->
<g id="edge5" class="edge">
<title>PersonModule&#45;&gt;PersonListComponent </title>
<path fill="none" stroke="#000000" stroke-dasharray="5,2" d="M336.2008,-178C291.0163,-178 230.7703,-178 230.7703,-178 230.7703,-178 230.7703,-205.973 230.7703,-205.973"/>
<polygon fill="#000000" stroke="#000000" points="227.2704,-205.973 230.7703,-215.973 234.2704,-205.973 227.2704,-205.973"/>
</g>
<!-- AppComponent  -->
<g id="node7" class="node">
<title>AppComponent </title>
<polygon fill="#80b1d3" stroke="#000000" points="597.439,-252 488.561,-252 488.561,-216 597.439,-216 597.439,-252"/>
<text text-anchor="middle" x="543" y="-229.8" font-family="Times,serif" font-size="14.00" fill="#000000">AppComponent </text>
</g>
<!-- PersonModule&#45;&gt;AppComponent  -->
<g id="edge6" class="edge">
<title>PersonModule&#45;&gt;AppComponent </title>
<path fill="none" stroke="#000000" stroke-dasharray="1,5" d="M433.6944,-178C480.1186,-178 543,-178 543,-178 543,-178 543,-205.973 543,-205.973"/>
<polygon fill="#000000" stroke="#000000" points="539.5001,-205.973 543,-215.973 546.5001,-205.973 539.5001,-205.973"/>
</g>
<!-- AccountModule -->
<g id="node4" class="node">
<title>AccountModule</title>
<polygon fill="#8dd3c7" stroke="#000000" points="438.4762,-122 435.4762,-126 414.4762,-126 411.4762,-122 331.5238,-122 331.5238,-86 438.4762,-86 438.4762,-122"/>
<text text-anchor="middle" x="385" y="-99.8" font-family="Times,serif" font-size="14.00" fill="#000000">AccountModule</text>
</g>
<!-- AccountModule&#45;&gt;PersonModule -->
<g id="edge3" class="edge">
<title>AccountModule&#45;&gt;PersonModule</title>
<path fill="none" stroke="#000000" d="M385,-122.1061C385,-122.1061 385,-140.991 385,-140.991"/>
<polygon fill="#000000" stroke="#000000" points="381.5001,-140.9909 385,-150.991 388.5001,-140.991 381.5001,-140.9909"/>
</g>
<!-- ConfigService -->
<g id="node8" class="node">
<title>ConfigService</title>
<ellipse fill="#fdb462" stroke="#000000" cx="241" cy="-104" rx="66.6325" ry="18"/>
<text text-anchor="middle" x="241" y="-99.8" font-family="Times,serif" font-size="14.00" fill="#000000">ConfigService</text>
</g>
<!-- ConfigService&#45;&gt;PersonModule -->
<g id="edge7" class="edge">
<title>ConfigService&#45;&gt;PersonModule</title>
<path fill="none" stroke="#000000" d="M296.3117,-114.2713C296.3117,-130.438 296.3117,-160 296.3117,-160 296.3117,-160 326.2452,-160 326.2452,-160"/>
<polygon fill="#000000" stroke="#000000" points="326.2453,-163.5001 336.2452,-160 326.2452,-156.5001 326.2453,-163.5001"/>
</g>
<!-- PersonService -->
<g id="node9" class="node">
<title>PersonService</title>
<ellipse fill="#fdb462" stroke="#000000" cx="90" cy="-104" rx="66.0492" ry="18"/>
<text text-anchor="middle" x="90" y="-99.8" font-family="Times,serif" font-size="14.00" fill="#000000">PersonService</text>
</g>
<!-- PersonService&#45;&gt;PersonModule -->
<g id="edge8" class="edge">
<title>PersonService&#45;&gt;PersonModule</title>
<path fill="none" stroke="#000000" d="M149.4588,-111.9703C149.4588,-129.3271 149.4588,-169 149.4588,-169 149.4588,-169 326.1957,-169 326.1957,-169"/>
<polygon fill="#000000" stroke="#000000" points="326.1957,-172.5001 336.1957,-169 326.1957,-165.5001 326.1957,-172.5001"/>
</g>
</g>
</svg>
