<?xml version="1.0" encoding="UTF-8" standalone="no"?>
<!DOCTYPE svg PUBLIC "-//W3C//DTD SVG 1.1//EN"
 "http://www.w3.org/Graphics/SVG/1.1/DTD/svg11.dtd">
<!-- Generated by graphviz version 2.40.1 (20161225.0304)
 -->
<!-- Title: dependencies Pages: 1 -->
<svg width="1756pt" height="211pt"
 viewBox="0.00 0.00 1756.00 211.00" xmlns="http://www.w3.org/2000/svg" xmlns:xlink="http://www.w3.org/1999/xlink">
<g id="graph0" class="graph" transform="scale(1 1) rotate(0) translate(4 207)">
<title>dependencies</title>
<polygon fill="#ffffff" stroke="transparent" points="-4,4 -4,-207 1752,-207 1752,4 -4,4"/>
<text text-anchor="start" x="853.0091" y="-42.4" font-family="sans-serif" font-weight="bold" font-size="14.00" fill="#000000">Legend</text>
<polygon fill="#ffffb3" stroke="transparent" points="640,-10 640,-30 660,-30 660,-10 640,-10"/>
<text text-anchor="start" x="663.629" y="-15.4" font-family="sans-serif" font-size="14.00" fill="#000000"> &#160;Declarations</text>
<polygon fill="#8dd3c7" stroke="transparent" points="753,-10 753,-30 773,-30 773,-10 753,-10"/>
<text text-anchor="start" x="776.7251" y="-15.4" font-family="sans-serif" font-size="14.00" fill="#000000"> &#160;Module</text>
<polygon fill="#80b1d3" stroke="transparent" points="839,-10 839,-30 859,-30 859,-10 839,-10"/>
<text text-anchor="start" x="862.7812" y="-15.4" font-family="sans-serif" font-size="14.00" fill="#000000"> &#160;Bootstrap</text>
<polygon fill="#fdb462" stroke="transparent" points="936,-10 936,-30 956,-30 956,-10 936,-10"/>
<text text-anchor="start" x="959.6732" y="-15.4" font-family="sans-serif" font-size="14.00" fill="#000000"> &#160;Providers</text>
<polygon fill="#fb8072" stroke="transparent" points="1032,-10 1032,-30 1052,-30 1052,-10 1032,-10"/>
<text text-anchor="start" x="1055.7258" y="-15.4" font-family="sans-serif" font-size="14.00" fill="#000000"> &#160;Exports</text>
<g id="clust1" class="cluster">
<title>cluster_ProcessDModule</title>
<polygon fill="none" stroke="#000000" stroke-dasharray="1,5" points="8,-70 8,-195 1740,-195 1740,-70 8,-70"/>
</g>
<g id="clust2" class="cluster">
<title>cluster_ProcessDModule_declarations</title>
<polygon fill="none" stroke="#000000" points="16,-78 16,-130 1732,-130 1732,-78 16,-78"/>
</g>
<!-- CaptureRceComponent -->
<g id="node1" class="node">
<title>CaptureRceComponent</title>
<polygon fill="#ffffb3" stroke="#000000" points="1723.9158,-122 1576.0842,-122 1576.0842,-86 1723.9158,-86 1723.9158,-122"/>
<text text-anchor="middle" x="1650" y="-99.8" font-family="Times,serif" font-size="14.00" fill="#000000">CaptureRceComponent</text>
</g>
<!-- ProcessDModule -->
<g id="node9" class="node">
<title>ProcessDModule</title>
<polygon fill="#8dd3c7" stroke="#000000" points="846.4188,-187 843.4188,-191 822.4188,-191 819.4188,-187 733.5812,-187 733.5812,-151 846.4188,-151 846.4188,-187"/>
<text text-anchor="middle" x="790" y="-164.8" font-family="Times,serif" font-size="14.00" fill="#000000">ProcessDModule</text>
</g>
<!-- CaptureRceComponent&#45;&gt;ProcessDModule -->
<g id="edge1" class="edge">
<title>CaptureRceComponent&#45;&gt;ProcessDModule</title>
<path fill="none" stroke="#000000" d="M1650,-122.0109C1650,-144.4852 1650,-180 1650,-180 1650,-180 856.427,-180 856.427,-180"/>
<polygon fill="#000000" stroke="#000000" points="856.427,-176.5001 846.427,-180 856.427,-183.5001 856.427,-176.5001"/>
</g>
<!-- CaptureTreasuryPaymentComponent -->
<g id="node2" class="node">
<title>CaptureTreasuryPaymentComponent</title>
<polygon fill="#ffffb3" stroke="#000000" points="1558.3903,-122 1333.6097,-122 1333.6097,-86 1558.3903,-86 1558.3903,-122"/>
<text text-anchor="middle" x="1446" y="-99.8" font-family="Times,serif" font-size="14.00" fill="#000000">CaptureTreasuryPaymentComponent</text>
</g>
<!-- CaptureTreasuryPaymentComponent&#45;&gt;ProcessDModule -->
<g id="edge2" class="edge">
<title>CaptureTreasuryPaymentComponent&#45;&gt;ProcessDModule</title>
<path fill="none" stroke="#000000" d="M1446,-122.1289C1446,-142.5724 1446,-173 1446,-173 1446,-173 856.2138,-173 856.2138,-173"/>
<polygon fill="#000000" stroke="#000000" points="856.2138,-169.5001 846.2138,-173 856.2137,-176.5001 856.2138,-169.5001"/>
</g>
<!-- FloatManagementComponent -->
<g id="node3" class="node">
<title>FloatManagementComponent</title>
<polygon fill="#ffffb3" stroke="#000000" points="1315.6951,-122 1132.3049,-122 1132.3049,-86 1315.6951,-86 1315.6951,-122"/>
<text text-anchor="middle" x="1224" y="-99.8" font-family="Times,serif" font-size="14.00" fill="#000000">FloatManagementComponent</text>
</g>
<!-- FloatManagementComponent&#45;&gt;ProcessDModule -->
<g id="edge3" class="edge">
<title>FloatManagementComponent&#45;&gt;ProcessDModule</title>
<path fill="none" stroke="#000000" d="M1224,-122.2667C1224,-140.5552 1224,-166 1224,-166 1224,-166 856.293,-166 856.293,-166"/>
<polygon fill="#000000" stroke="#000000" points="856.293,-162.5001 846.293,-166 856.293,-169.5001 856.293,-162.5001"/>
</g>
<!-- GenerateStatementComponent -->
<g id="node4" class="node">
<title>GenerateStatementComponent</title>
<polygon fill="#ffffb3" stroke="#000000" points="1113.8375,-122 926.1625,-122 926.1625,-86 1113.8375,-86 1113.8375,-122"/>
<text text-anchor="middle" x="1020" y="-99.8" font-family="Times,serif" font-size="14.00" fill="#000000">GenerateStatementComponent</text>
</g>
<!-- GenerateStatementComponent&#45;&gt;ProcessDModule -->
<g id="edge4" class="edge">
<title>GenerateStatementComponent&#45;&gt;ProcessDModule</title>
<path fill="none" stroke="#000000" d="M1020,-122.0091C1020,-138.0494 1020,-159 1020,-159 1020,-159 856.2643,-159 856.2643,-159"/>
<polygon fill="#000000" stroke="#000000" points="856.2644,-155.5001 846.2643,-159 856.2643,-162.5001 856.2644,-155.5001"/>
</g>
<!-- GenerateTransferStatementComponent -->
<g id="node5" class="node">
<title>GenerateTransferStatementComponent</title>
<polygon fill="#ffffb3" stroke="#000000" points="907.7457,-122 672.2543,-122 672.2543,-86 907.7457,-86 907.7457,-122"/>
<text text-anchor="middle" x="790" y="-99.8" font-family="Times,serif" font-size="14.00" fill="#000000">GenerateTransferStatementComponent</text>
</g>
<!-- GenerateTransferStatementComponent&#45;&gt;ProcessDModule -->
<g id="edge5" class="edge">
<title>GenerateTransferStatementComponent&#45;&gt;ProcessDModule</title>
<path fill="none" stroke="#000000" d="M808.7363,-122.1061C808.7363,-122.1061 808.7363,-140.991 808.7363,-140.991"/>
<polygon fill="#000000" stroke="#000000" points="805.2364,-140.9909 808.7363,-150.991 812.2364,-140.991 805.2364,-140.9909"/>
</g>
<!-- GenerateTransferStatementComponent&#45;&gt;ProcessDModule -->
<g id="edge6" class="edge">
<title>GenerateTransferStatementComponent&#45;&gt;ProcessDModule</title>
<path fill="none" stroke="#000000" d="M771.2637,-122.1061C771.2637,-122.1061 771.2637,-140.991 771.2637,-140.991"/>
<polygon fill="#000000" stroke="#000000" points="767.7638,-140.9909 771.2637,-150.991 774.7638,-140.991 767.7638,-140.9909"/>
</g>
<!-- PaymentAndReceiptComponent -->
<g id="node6" class="node">
<title>PaymentAndReceiptComponent</title>
<polygon fill="#ffffb3" stroke="#000000" points="654.6937,-122 457.3063,-122 457.3063,-86 654.6937,-86 654.6937,-122"/>
<text text-anchor="middle" x="556" y="-99.8" font-family="Times,serif" font-size="14.00" fill="#000000">PaymentAndReceiptComponent</text>
</g>
<!-- PaymentAndReceiptComponent&#45;&gt;ProcessDModule -->
<g id="edge7" class="edge">
<title>PaymentAndReceiptComponent&#45;&gt;ProcessDModule</title>
<path fill="none" stroke="#000000" d="M556,-122.027C556,-138.3976 556,-160 556,-160 556,-160 723.6534,-160 723.6534,-160"/>
<polygon fill="#000000" stroke="#000000" points="723.6534,-163.5001 733.6534,-160 723.6534,-156.5001 723.6534,-163.5001"/>
</g>
<!-- ShiftManagementComponent -->
<g id="node7" class="node">
<title>ShiftManagementComponent</title>
<polygon fill="#ffffb3" stroke="#000000" points="439.6414,-122 258.3586,-122 258.3586,-86 439.6414,-86 439.6414,-122"/>
<text text-anchor="middle" x="349" y="-99.8" font-family="Times,serif" font-size="14.00" fill="#000000">ShiftManagementComponent</text>
</g>
<!-- ShiftManagementComponent&#45;&gt;ProcessDModule -->
<g id="edge8" class="edge">
<title>ShiftManagementComponent&#45;&gt;ProcessDModule</title>
<path fill="none" stroke="#000000" d="M349,-122.1061C349,-141.3391 349,-169 349,-169 349,-169 723.6991,-169 723.6991,-169"/>
<polygon fill="#000000" stroke="#000000" points="723.6991,-172.5001 733.6991,-169 723.6991,-165.5001 723.6991,-172.5001"/>
</g>
<!-- ViewHistoricalStatmentComponent -->
<g id="node8" class="node">
<title>ViewHistoricalStatmentComponent</title>
<polygon fill="#ffffb3" stroke="#000000" points="240.1287,-122 23.8713,-122 23.8713,-86 240.1287,-86 240.1287,-122"/>
<text text-anchor="middle" x="132" y="-99.8" font-family="Times,serif" font-size="14.00" fill="#000000">ViewHistoricalStatmentComponent</text>
</g>
<!-- ViewHistoricalStatmentComponent&#45;&gt;ProcessDModule -->
<g id="edge9" class="edge">
<title>ViewHistoricalStatmentComponent&#45;&gt;ProcessDModule</title>
<path fill="none" stroke="#000000" d="M132,-122.2921C132,-144.2057 132,-178 132,-178 132,-178 723.6148,-178 723.6148,-178"/>
<polygon fill="#000000" stroke="#000000" points="723.6149,-181.5001 733.6148,-178 723.6148,-174.5001 723.6149,-181.5001"/>
</g>
</g>
</svg>
