<?xml version="1.0" encoding="UTF-8" standalone="no"?>
<!DOCTYPE svg PUBLIC "-//W3C//DTD SVG 1.1//EN"
 "http://www.w3.org/Graphics/SVG/1.1/DTD/svg11.dtd">
<!-- Generated by graphviz version 2.40.1 (20161225.0304)
 -->
<!-- Title: dependencies Pages: 1 -->
<svg width="504pt" height="284pt"
 viewBox="0.00 0.00 504.00 284.00" xmlns="http://www.w3.org/2000/svg" xmlns:xlink="http://www.w3.org/1999/xlink">
<g id="graph0" class="graph" transform="scale(1 1) rotate(0) translate(4 280)">
<title>dependencies</title>
<polygon fill="#ffffff" stroke="transparent" points="-4,4 -4,-280 500,-280 500,4 -4,4"/>
<text text-anchor="start" x="227.0091" y="-42.4" font-family="sans-serif" font-weight="bold" font-size="14.00" fill="#000000">Legend</text>
<polygon fill="#ffffb3" stroke="transparent" points="14,-10 14,-30 34,-30 34,-10 14,-10"/>
<text text-anchor="start" x="37.629" y="-15.4" font-family="sans-serif" font-size="14.00" fill="#000000"> &#160;Declarations</text>
<polygon fill="#8dd3c7" stroke="transparent" points="127,-10 127,-30 147,-30 147,-10 127,-10"/>
<text text-anchor="start" x="150.7251" y="-15.4" font-family="sans-serif" font-size="14.00" fill="#000000"> &#160;Module</text>
<polygon fill="#80b1d3" stroke="transparent" points="213,-10 213,-30 233,-30 233,-10 213,-10"/>
<text text-anchor="start" x="236.7812" y="-15.4" font-family="sans-serif" font-size="14.00" fill="#000000"> &#160;Bootstrap</text>
<polygon fill="#fdb462" stroke="transparent" points="310,-10 310,-30 330,-30 330,-10 310,-10"/>
<text text-anchor="start" x="333.6732" y="-15.4" font-family="sans-serif" font-size="14.00" fill="#000000"> &#160;Providers</text>
<polygon fill="#fb8072" stroke="transparent" points="406,-10 406,-30 426,-30 426,-10 406,-10"/>
<text text-anchor="start" x="429.7258" y="-15.4" font-family="sans-serif" font-size="14.00" fill="#000000"> &#160;Exports</text>
<g id="clust1" class="cluster">
<title>cluster_SignatoryDetailsModule</title>
<polygon fill="none" stroke="#000000" stroke-dasharray="1,5" points="33,-70 33,-268 463,-268 463,-70 33,-70"/>
</g>
<g id="clust2" class="cluster">
<title>cluster_SignatoryDetailsModule_declarations</title>
<polygon fill="none" stroke="#000000" points="263,-78 263,-130 455,-130 455,-78 263,-78"/>
</g>
<g id="clust4" class="cluster">
<title>cluster_SignatoryDetailsModule_imports</title>
<polygon fill="none" stroke="#000000" points="41,-78 41,-130 255,-130 255,-78 41,-78"/>
</g>
<g id="clust5" class="cluster">
<title>cluster_SignatoryDetailsModule_exports</title>
<polygon fill="none" stroke="#000000" points="156,-208 156,-260 350,-260 350,-208 156,-208"/>
</g>
<!-- SignatoryDetailsComponent -->
<g id="node1" class="node">
<title>SignatoryDetailsComponent</title>
<polygon fill="#ffffb3" stroke="#000000" points="446.9241,-122 271.0759,-122 271.0759,-86 446.9241,-86 446.9241,-122"/>
<text text-anchor="middle" x="359" y="-99.8" font-family="Times,serif" font-size="14.00" fill="#000000">SignatoryDetailsComponent</text>
</g>
<!-- SignatoryDetailsModule -->
<g id="node2" class="node">
<title>SignatoryDetailsModule</title>
<polygon fill="#8dd3c7" stroke="#000000" points="329.6414,-187 326.6414,-191 305.6414,-191 302.6414,-187 176.3586,-187 176.3586,-151 329.6414,-151 329.6414,-187"/>
<text text-anchor="middle" x="253" y="-164.8" font-family="Times,serif" font-size="14.00" fill="#000000">SignatoryDetailsModule</text>
</g>
<!-- SignatoryDetailsComponent&#45;&gt;SignatoryDetailsModule -->
<g id="edge1" class="edge">
<title>SignatoryDetailsComponent&#45;&gt;SignatoryDetailsModule</title>
<path fill="none" stroke="#000000" d="M300.5544,-122.1061C300.5544,-122.1061 300.5544,-140.991 300.5544,-140.991"/>
<polygon fill="#000000" stroke="#000000" points="297.0544,-140.9909 300.5544,-150.991 304.0544,-140.991 297.0544,-140.9909"/>
</g>
<!-- SignatoryDetailsComponent  -->
<g id="node4" class="node">
<title>SignatoryDetailsComponent </title>
<polygon fill="#fb8072" stroke="#000000" points="342.4236,-252 163.5764,-252 163.5764,-216 342.4236,-216 342.4236,-252"/>
<text text-anchor="middle" x="253" y="-229.8" font-family="Times,serif" font-size="14.00" fill="#000000">SignatoryDetailsComponent </text>
</g>
<!-- SignatoryDetailsModule&#45;&gt;SignatoryDetailsComponent  -->
<g id="edge3" class="edge">
<title>SignatoryDetailsModule&#45;&gt;SignatoryDetailsComponent </title>
<path fill="none" stroke="#000000" stroke-dasharray="5,2" d="M253,-187.1061C253,-187.1061 253,-205.991 253,-205.991"/>
<polygon fill="#000000" stroke="#000000" points="249.5001,-205.9909 253,-215.991 256.5001,-205.991 249.5001,-205.9909"/>
</g>
<!-- SignatoryDetailsRoutingModule -->
<g id="node3" class="node">
<title>SignatoryDetailsRoutingModule</title>
<polygon fill="#8dd3c7" stroke="#000000" points="247.2589,-122 244.2589,-126 223.2589,-126 220.2589,-122 48.7411,-122 48.7411,-86 247.2589,-86 247.2589,-122"/>
<text text-anchor="middle" x="148" y="-99.8" font-family="Times,serif" font-size="14.00" fill="#000000">SignatoryDetailsRoutingModule</text>
</g>
<!-- SignatoryDetailsRoutingModule&#45;&gt;SignatoryDetailsModule -->
<g id="edge2" class="edge">
<title>SignatoryDetailsRoutingModule&#45;&gt;SignatoryDetailsModule</title>
<path fill="none" stroke="#000000" d="M211.7795,-122.1061C211.7795,-122.1061 211.7795,-140.991 211.7795,-140.991"/>
<polygon fill="#000000" stroke="#000000" points="208.2795,-140.9909 211.7795,-150.991 215.2795,-140.991 208.2795,-140.9909"/>
</g>
</g>
</svg>
