<?xml version="1.0" encoding="UTF-8" standalone="no"?>
<!DOCTYPE svg PUBLIC "-//W3C//DTD SVG 1.1//EN"
 "http://www.w3.org/Graphics/SVG/1.1/DTD/svg11.dtd">
<!-- Generated by graphviz version 2.40.1 (20161225.0304)
 -->
<!-- Title: dependencies Pages: 1 -->
<svg width="2826pt" height="290pt"
 viewBox="0.00 0.00 2826.00 290.00" xmlns="http://www.w3.org/2000/svg" xmlns:xlink="http://www.w3.org/1999/xlink">
<g id="graph0" class="graph" transform="scale(1 1) rotate(0) translate(4 286)">
<title>dependencies</title>
<polygon fill="#ffffff" stroke="transparent" points="-4,4 -4,-286 2822,-286 2822,4 -4,4"/>
<text text-anchor="start" x="1388.0091" y="-42.4" font-family="sans-serif" font-weight="bold" font-size="14.00" fill="#000000">Legend</text>
<polygon fill="#ffffb3" stroke="transparent" points="1175,-10 1175,-30 1195,-30 1195,-10 1175,-10"/>
<text text-anchor="start" x="1198.629" y="-15.4" font-family="sans-serif" font-size="14.00" fill="#000000"> &#160;Declarations</text>
<polygon fill="#8dd3c7" stroke="transparent" points="1288,-10 1288,-30 1308,-30 1308,-10 1288,-10"/>
<text text-anchor="start" x="1311.7251" y="-15.4" font-family="sans-serif" font-size="14.00" fill="#000000"> &#160;Module</text>
<polygon fill="#80b1d3" stroke="transparent" points="1374,-10 1374,-30 1394,-30 1394,-10 1374,-10"/>
<text text-anchor="start" x="1397.7812" y="-15.4" font-family="sans-serif" font-size="14.00" fill="#000000"> &#160;Bootstrap</text>
<polygon fill="#fdb462" stroke="transparent" points="1471,-10 1471,-30 1491,-30 1491,-10 1471,-10"/>
<text text-anchor="start" x="1494.6732" y="-15.4" font-family="sans-serif" font-size="14.00" fill="#000000"> &#160;Providers</text>
<polygon fill="#fb8072" stroke="transparent" points="1567,-10 1567,-30 1587,-30 1587,-10 1567,-10"/>
<text text-anchor="start" x="1590.7258" y="-15.4" font-family="sans-serif" font-size="14.00" fill="#000000"> &#160;Exports</text>
<g id="clust1" class="cluster">
<title>cluster_CurrentOwnerInterestModule</title>
<polygon fill="none" stroke="#000000" stroke-dasharray="1,5" points="8,-70 8,-274 248,-274 248,-70 8,-70"/>
</g>
<g id="clust2" class="cluster">
<title>cluster_CurrentOwnerInterestModule_declarations</title>
<polygon fill="none" stroke="#000000" points="19,-78 19,-130 239,-130 239,-78 19,-78"/>
</g>
<g id="clust5" class="cluster">
<title>cluster_CurrentOwnerInterestModule_exports</title>
<polygon fill="none" stroke="#000000" points="16,-214 16,-266 240,-266 240,-214 16,-214"/>
</g>
<g id="clust8" class="cluster">
<title>cluster_DocumentsModule</title>
<polygon fill="none" stroke="#000000" stroke-dasharray="1,5" points="256,-70 256,-274 436,-274 436,-70 256,-70"/>
</g>
<g id="clust9" class="cluster">
<title>cluster_DocumentsModule_declarations</title>
<polygon fill="none" stroke="#000000" points="265,-78 265,-130 427,-130 427,-78 265,-78"/>
</g>
<g id="clust12" class="cluster">
<title>cluster_DocumentsModule_exports</title>
<polygon fill="none" stroke="#000000" points="264,-214 264,-266 428,-266 428,-214 264,-214"/>
</g>
<g id="clust15" class="cluster">
<title>cluster_IdentifyNewOwnerModule</title>
<polygon fill="none" stroke="#000000" stroke-dasharray="1,5" points="444,-70 444,-274 670,-274 670,-70 444,-70"/>
</g>
<g id="clust16" class="cluster">
<title>cluster_IdentifyNewOwnerModule_declarations</title>
<polygon fill="none" stroke="#000000" points="455,-78 455,-130 661,-130 661,-78 455,-78"/>
</g>
<g id="clust19" class="cluster">
<title>cluster_IdentifyNewOwnerModule_exports</title>
<polygon fill="none" stroke="#000000" points="452,-214 452,-266 662,-266 662,-214 452,-214"/>
</g>
<g id="clust22" class="cluster">
<title>cluster_IdentifyVehicleAndOwnerModule</title>
<polygon fill="none" stroke="#000000" stroke-dasharray="1,5" points="678,-70 678,-274 944,-274 944,-70 678,-70"/>
</g>
<g id="clust23" class="cluster">
<title>cluster_IdentifyVehicleAndOwnerModule_declarations</title>
<polygon fill="none" stroke="#000000" points="687,-78 687,-130 935,-130 935,-78 687,-78"/>
</g>
<g id="clust26" class="cluster">
<title>cluster_IdentifyVehicleAndOwnerModule_exports</title>
<polygon fill="none" stroke="#000000" points="686,-214 686,-266 936,-266 936,-214 686,-214"/>
</g>
<g id="clust29" class="cluster">
<title>cluster_Mta6Module</title>
<polygon fill="none" stroke="#000000" stroke-dasharray="1,5" points="2002,-70 2002,-274 2156,-274 2156,-70 2002,-70"/>
</g>
<g id="clust30" class="cluster">
<title>cluster_Mta6Module_declarations</title>
<polygon fill="none" stroke="#000000" points="2010,-78 2010,-130 2146,-130 2146,-78 2010,-78"/>
</g>
<g id="clust33" class="cluster">
<title>cluster_Mta6Module_exports</title>
<polygon fill="none" stroke="#000000" points="2010,-214 2010,-266 2148,-266 2148,-214 2010,-214"/>
</g>
<g id="clust36" class="cluster">
<title>cluster_NewOwnerInterestModule</title>
<polygon fill="none" stroke="#000000" stroke-dasharray="1,5" points="2164,-70 2164,-274 2388,-274 2388,-70 2164,-70"/>
</g>
<g id="clust37" class="cluster">
<title>cluster_NewOwnerInterestModule_declarations</title>
<polygon fill="none" stroke="#000000" points="2173,-78 2173,-130 2377,-130 2377,-78 2173,-78"/>
</g>
<g id="clust40" class="cluster">
<title>cluster_NewOwnerInterestModule_exports</title>
<polygon fill="none" stroke="#000000" points="2172,-214 2172,-266 2380,-266 2380,-214 2172,-214"/>
</g>
<g id="clust43" class="cluster">
<title>cluster_NewOwnerModule</title>
<polygon fill="none" stroke="#000000" stroke-dasharray="1,5" points="2396,-70 2396,-274 2578,-274 2578,-70 2396,-70"/>
</g>
<g id="clust44" class="cluster">
<title>cluster_NewOwnerModule_declarations</title>
<polygon fill="none" stroke="#000000" points="2405,-78 2405,-130 2567,-130 2567,-78 2405,-78"/>
</g>
<g id="clust47" class="cluster">
<title>cluster_NewOwnerModule_exports</title>
<polygon fill="none" stroke="#000000" points="2404,-214 2404,-266 2570,-266 2570,-214 2404,-214"/>
</g>
<g id="clust50" class="cluster">
<title>cluster_OnBehalfOfOwnerModule</title>
<polygon fill="none" stroke="#000000" stroke-dasharray="1,5" points="2586,-70 2586,-274 2810,-274 2810,-70 2586,-70"/>
</g>
<g id="clust51" class="cluster">
<title>cluster_OnBehalfOfOwnerModule_declarations</title>
<polygon fill="none" stroke="#000000" points="2595,-78 2595,-130 2799,-130 2799,-78 2595,-78"/>
</g>
<g id="clust54" class="cluster">
<title>cluster_OnBehalfOfOwnerModule_exports</title>
<polygon fill="none" stroke="#000000" points="2594,-214 2594,-266 2802,-266 2802,-214 2594,-214"/>
</g>
<g id="clust57" class="cluster">
<title>cluster_ProcessCModule</title>
<polygon fill="none" stroke="#000000" stroke-dasharray="1,5" points="1300,-138 1300,-266 1606,-266 1606,-138 1300,-138"/>
</g>
<g id="clust59" class="cluster">
<title>cluster_ProcessCModule_imports</title>
<polygon fill="none" stroke="#000000" points="1308,-146 1308,-198 1598,-198 1598,-146 1308,-146"/>
</g>
<g id="clust63" class="cluster">
<title>cluster_TransferorModule</title>
<polygon fill="none" stroke="#000000" stroke-dasharray="1,5" points="952,-206 952,-274 1292,-274 1292,-206 952,-206"/>
</g>
<g id="clust64" class="cluster">
<title>cluster_TransferorModule_declarations</title>
<polygon fill="none" stroke="#000000" points="1128,-214 1128,-266 1284,-266 1284,-214 1128,-214"/>
</g>
<g id="clust67" class="cluster">
<title>cluster_TransferorModule_exports</title>
<polygon fill="none" stroke="#000000" points="960,-214 960,-266 1120,-266 1120,-214 960,-214"/>
</g>
<g id="clust70" class="cluster">
<title>cluster_VerifyInterestModule</title>
<polygon fill="none" stroke="#000000" stroke-dasharray="1,5" points="1614,-206 1614,-274 1994,-274 1994,-206 1614,-206"/>
</g>
<g id="clust71" class="cluster">
<title>cluster_VerifyInterestModule_declarations</title>
<polygon fill="none" stroke="#000000" points="1810,-214 1810,-266 1986,-266 1986,-214 1810,-214"/>
</g>
<g id="clust74" class="cluster">
<title>cluster_VerifyInterestModule_exports</title>
<polygon fill="none" stroke="#000000" points="1622,-214 1622,-266 1802,-266 1802,-214 1622,-214"/>
</g>
<!-- CurrentOwnerInterestComponent -->
<g id="node1" class="node">
<title>CurrentOwnerInterestComponent</title>
<polygon fill="#ffffb3" stroke="#000000" points="231.1601,-122 26.8399,-122 26.8399,-86 231.1601,-86 231.1601,-122"/>
<text text-anchor="middle" x="129" y="-99.8" font-family="Times,serif" font-size="14.00" fill="#000000">CurrentOwnerInterestComponent</text>
</g>
<!-- CurrentOwnerInterestModule -->
<g id="node2" class="node">
<title>CurrentOwnerInterestModule</title>
<polygon fill="#8dd3c7" stroke="#000000" points="220.3778,-190 217.3778,-194 196.3778,-194 193.3778,-190 37.6222,-190 37.6222,-154 220.3778,-154 220.3778,-190"/>
<text text-anchor="middle" x="129" y="-167.8" font-family="Times,serif" font-size="14.00" fill="#000000">CurrentOwnerInterestModule</text>
</g>
<!-- CurrentOwnerInterestComponent&#45;&gt;CurrentOwnerInterestModule -->
<g id="edge1" class="edge">
<title>CurrentOwnerInterestComponent&#45;&gt;CurrentOwnerInterestModule</title>
<path fill="none" stroke="#000000" d="M129,-122.2228C129,-122.2228 129,-143.7269 129,-143.7269"/>
<polygon fill="#000000" stroke="#000000" points="125.5001,-143.7269 129,-153.7269 132.5001,-143.727 125.5001,-143.7269"/>
</g>
<!-- CurrentOwnerInterestComponent  -->
<g id="node3" class="node">
<title>CurrentOwnerInterestComponent </title>
<polygon fill="#fb8072" stroke="#000000" points="231.6603,-258 24.3397,-258 24.3397,-222 231.6603,-222 231.6603,-258"/>
<text text-anchor="middle" x="128" y="-235.8" font-family="Times,serif" font-size="14.00" fill="#000000">CurrentOwnerInterestComponent </text>
</g>
<!-- CurrentOwnerInterestModule&#45;&gt;CurrentOwnerInterestComponent  -->
<g id="edge2" class="edge">
<title>CurrentOwnerInterestModule&#45;&gt;CurrentOwnerInterestComponent </title>
<path fill="none" stroke="#000000" stroke-dasharray="5,2" d="M98.6038,-190.2228C98.6038,-190.2228 98.6038,-211.7269 98.6038,-211.7269"/>
<polygon fill="#000000" stroke="#000000" points="95.1039,-211.7269 98.6038,-221.7269 102.1039,-211.727 95.1039,-211.7269"/>
</g>
<!-- ProcessCModule -->
<g id="node27" class="node">
<title>ProcessCModule</title>
<polygon fill="#8dd3c7" stroke="#000000" points="1503.6486,-258 1500.6486,-262 1479.6486,-262 1476.6486,-258 1392.3514,-258 1392.3514,-222 1503.6486,-222 1503.6486,-258"/>
<text text-anchor="middle" x="1448" y="-235.8" font-family="Times,serif" font-size="14.00" fill="#000000">ProcessCModule</text>
</g>
<!-- CurrentOwnerInterestModule&#45;&gt;ProcessCModule -->
<g id="edge17" class="edge">
<title>CurrentOwnerInterestModule&#45;&gt;ProcessCModule</title>
<path fill="none" stroke="#000000" d="M159.3962,-190.2434C159.3962,-197.4297 159.3962,-204 159.3962,-204 159.3962,-204 1400.6027,-204 1400.6027,-204 1400.6027,-204 1400.6027,-211.5782 1400.6027,-211.5782"/>
<polygon fill="#000000" stroke="#000000" points="1397.1028,-211.5781 1400.6027,-221.5782 1404.1028,-211.5782 1397.1028,-211.5781"/>
</g>
<!-- DocumentsComponent -->
<g id="node4" class="node">
<title>DocumentsComponent</title>
<polygon fill="#ffffb3" stroke="#000000" points="418.594,-122 273.406,-122 273.406,-86 418.594,-86 418.594,-122"/>
<text text-anchor="middle" x="346" y="-99.8" font-family="Times,serif" font-size="14.00" fill="#000000">DocumentsComponent</text>
</g>
<!-- DocumentsModule -->
<g id="node5" class="node">
<title>DocumentsModule</title>
<polygon fill="#8dd3c7" stroke="#000000" points="407.8118,-190 404.8118,-194 383.8118,-194 380.8118,-190 284.1882,-190 284.1882,-154 407.8118,-154 407.8118,-190"/>
<text text-anchor="middle" x="346" y="-167.8" font-family="Times,serif" font-size="14.00" fill="#000000">DocumentsModule</text>
</g>
<!-- DocumentsComponent&#45;&gt;DocumentsModule -->
<g id="edge3" class="edge">
<title>DocumentsComponent&#45;&gt;DocumentsModule</title>
<path fill="none" stroke="#000000" d="M346,-122.2228C346,-122.2228 346,-143.7269 346,-143.7269"/>
<polygon fill="#000000" stroke="#000000" points="342.5001,-143.7269 346,-153.7269 349.5001,-143.727 342.5001,-143.7269"/>
</g>
<!-- DocumentsComponent  -->
<g id="node6" class="node">
<title>DocumentsComponent </title>
<polygon fill="#fb8072" stroke="#000000" points="420.0946,-258 271.9054,-258 271.9054,-222 420.0946,-222 420.0946,-258"/>
<text text-anchor="middle" x="346" y="-235.8" font-family="Times,serif" font-size="14.00" fill="#000000">DocumentsComponent </text>
</g>
<!-- DocumentsModule&#45;&gt;DocumentsComponent  -->
<g id="edge4" class="edge">
<title>DocumentsModule&#45;&gt;DocumentsComponent </title>
<path fill="none" stroke="#000000" stroke-dasharray="5,2" d="M325.4481,-190.2228C325.4481,-190.2228 325.4481,-211.7269 325.4481,-211.7269"/>
<polygon fill="#000000" stroke="#000000" points="321.9482,-211.7269 325.4481,-221.7269 328.9482,-211.727 321.9482,-211.7269"/>
</g>
<!-- DocumentsModule&#45;&gt;ProcessCModule -->
<g id="edge18" class="edge">
<title>DocumentsModule&#45;&gt;ProcessCModule</title>
<path fill="none" stroke="#000000" d="M366.5519,-190.207C366.5519,-195.5549 366.5519,-200 366.5519,-200 366.5519,-200 1409.0293,-200 1409.0293,-200 1409.0293,-200 1409.0293,-211.8726 1409.0293,-211.8726"/>
<polygon fill="#000000" stroke="#000000" points="1405.5294,-211.8725 1409.0293,-221.8726 1412.5294,-211.8726 1405.5294,-211.8725"/>
</g>
<!-- IdentifyNewOwnerComponent -->
<g id="node7" class="node">
<title>IdentifyNewOwnerComponent</title>
<polygon fill="#ffffb3" stroke="#000000" points="653.1657,-122 462.8343,-122 462.8343,-86 653.1657,-86 653.1657,-122"/>
<text text-anchor="middle" x="558" y="-99.8" font-family="Times,serif" font-size="14.00" fill="#000000">IdentifyNewOwnerComponent</text>
</g>
<!-- IdentifyNewOwnerModule -->
<g id="node8" class="node">
<title>IdentifyNewOwnerModule</title>
<polygon fill="#8dd3c7" stroke="#000000" points="642.3834,-190 639.3834,-194 618.3834,-194 615.3834,-190 473.6166,-190 473.6166,-154 642.3834,-154 642.3834,-190"/>
<text text-anchor="middle" x="558" y="-167.8" font-family="Times,serif" font-size="14.00" fill="#000000">IdentifyNewOwnerModule</text>
</g>
<!-- IdentifyNewOwnerComponent&#45;&gt;IdentifyNewOwnerModule -->
<g id="edge5" class="edge">
<title>IdentifyNewOwnerComponent&#45;&gt;IdentifyNewOwnerModule</title>
<path fill="none" stroke="#000000" d="M558,-122.2228C558,-122.2228 558,-143.7269 558,-143.7269"/>
<polygon fill="#000000" stroke="#000000" points="554.5001,-143.7269 558,-153.7269 561.5001,-143.727 554.5001,-143.7269"/>
</g>
<!-- IdentifyNewOwnerComponent  -->
<g id="node9" class="node">
<title>IdentifyNewOwnerComponent </title>
<polygon fill="#fb8072" stroke="#000000" points="653.6659,-258 460.3341,-258 460.3341,-222 653.6659,-222 653.6659,-258"/>
<text text-anchor="middle" x="557" y="-235.8" font-family="Times,serif" font-size="14.00" fill="#000000">IdentifyNewOwnerComponent </text>
</g>
<!-- IdentifyNewOwnerModule&#45;&gt;IdentifyNewOwnerComponent  -->
<g id="edge6" class="edge">
<title>IdentifyNewOwnerModule&#45;&gt;IdentifyNewOwnerComponent </title>
<path fill="none" stroke="#000000" stroke-dasharray="5,2" d="M529.9362,-190.2228C529.9362,-190.2228 529.9362,-211.7269 529.9362,-211.7269"/>
<polygon fill="#000000" stroke="#000000" points="526.4363,-211.7269 529.9362,-221.7269 533.4363,-211.727 526.4363,-211.7269"/>
</g>
<!-- IdentifyNewOwnerModule&#45;&gt;ProcessCModule -->
<g id="edge19" class="edge">
<title>IdentifyNewOwnerModule&#45;&gt;ProcessCModule</title>
<path fill="none" stroke="#000000" d="M586.0638,-190.1223C586.0638,-192.9729 586.0638,-195 586.0638,-195 586.0638,-195 1417.456,-195 1417.456,-195 1417.456,-195 1417.456,-211.9561 1417.456,-211.9561"/>
<polygon fill="#000000" stroke="#000000" points="1413.9561,-211.956 1417.456,-221.9561 1420.9561,-211.9561 1413.9561,-211.956"/>
</g>
<!-- IdentifyVehicleAndOwnerComponent -->
<g id="node10" class="node">
<title>IdentifyVehicleAndOwnerComponent</title>
<polygon fill="#ffffb3" stroke="#000000" points="926.8763,-122 695.1237,-122 695.1237,-86 926.8763,-86 926.8763,-122"/>
<text text-anchor="middle" x="811" y="-99.8" font-family="Times,serif" font-size="14.00" fill="#000000">IdentifyVehicleAndOwnerComponent</text>
</g>
<!-- IdentifyVehicleAndOwnerModule -->
<g id="node11" class="node">
<title>IdentifyVehicleAndOwnerModule</title>
<polygon fill="#8dd3c7" stroke="#000000" points="915.5938,-190 912.5938,-194 891.5938,-194 888.5938,-190 706.4062,-190 706.4062,-154 915.5938,-154 915.5938,-190"/>
<text text-anchor="middle" x="811" y="-167.8" font-family="Times,serif" font-size="14.00" fill="#000000">IdentifyVehicleAndOwnerModule</text>
</g>
<!-- IdentifyVehicleAndOwnerComponent&#45;&gt;IdentifyVehicleAndOwnerModule -->
<g id="edge7" class="edge">
<title>IdentifyVehicleAndOwnerComponent&#45;&gt;IdentifyVehicleAndOwnerModule</title>
<path fill="none" stroke="#000000" d="M811,-122.2228C811,-122.2228 811,-143.7269 811,-143.7269"/>
<polygon fill="#000000" stroke="#000000" points="807.5001,-143.7269 811,-153.7269 814.5001,-143.727 807.5001,-143.7269"/>
</g>
<!-- IdentifyVehicleAndOwnerComponent  -->
<g id="node12" class="node">
<title>IdentifyVehicleAndOwnerComponent </title>
<polygon fill="#fb8072" stroke="#000000" points="928.376,-258 693.624,-258 693.624,-222 928.376,-222 928.376,-258"/>
<text text-anchor="middle" x="811" y="-235.8" font-family="Times,serif" font-size="14.00" fill="#000000">IdentifyVehicleAndOwnerComponent </text>
</g>
<!-- IdentifyVehicleAndOwnerModule&#45;&gt;IdentifyVehicleAndOwnerComponent  -->
<g id="edge8" class="edge">
<title>IdentifyVehicleAndOwnerModule&#45;&gt;IdentifyVehicleAndOwnerComponent </title>
<path fill="none" stroke="#000000" stroke-dasharray="5,2" d="M811,-190.2228C811,-190.2228 811,-211.7269 811,-211.7269"/>
<polygon fill="#000000" stroke="#000000" points="807.5001,-211.7269 811,-221.7269 814.5001,-211.727 807.5001,-211.7269"/>
</g>
<!-- IdentifyVehicleAndOwnerModule&#45;&gt;ProcessCModule -->
<g id="edge20" class="edge">
<title>IdentifyVehicleAndOwnerModule&#45;&gt;ProcessCModule</title>
<path fill="none" stroke="#000000" d="M915.6289,-166C1058.1897,-166 1295.9457,-166 1295.9457,-166 1295.9457,-166 1295.9457,-234 1295.9457,-234 1295.9457,-234 1382.244,-234 1382.244,-234"/>
<polygon fill="#000000" stroke="#000000" points="1382.244,-237.5001 1392.244,-234 1382.2439,-230.5001 1382.244,-237.5001"/>
</g>
<!-- MTA6Component -->
<g id="node13" class="node">
<title>MTA6Component</title>
<polygon fill="#ffffb3" stroke="#000000" points="2137.937,-122 2018.063,-122 2018.063,-86 2137.937,-86 2137.937,-122"/>
<text text-anchor="middle" x="2078" y="-99.8" font-family="Times,serif" font-size="14.00" fill="#000000">MTA6Component</text>
</g>
<!-- Mta6Module -->
<g id="node14" class="node">
<title>Mta6Module</title>
<polygon fill="#8dd3c7" stroke="#000000" points="2122.5997,-190 2119.5997,-194 2098.5997,-194 2095.5997,-190 2033.4003,-190 2033.4003,-154 2122.5997,-154 2122.5997,-190"/>
<text text-anchor="middle" x="2078" y="-167.8" font-family="Times,serif" font-size="14.00" fill="#000000">Mta6Module</text>
</g>
<!-- MTA6Component&#45;&gt;Mta6Module -->
<g id="edge9" class="edge">
<title>MTA6Component&#45;&gt;Mta6Module</title>
<path fill="none" stroke="#000000" d="M2078,-122.2228C2078,-122.2228 2078,-143.7269 2078,-143.7269"/>
<polygon fill="#000000" stroke="#000000" points="2074.5001,-143.7269 2078,-153.7269 2081.5001,-143.727 2074.5001,-143.7269"/>
</g>
<!-- MTA6Component  -->
<g id="node15" class="node">
<title>MTA6Component </title>
<polygon fill="#fb8072" stroke="#000000" points="2140.4362,-258 2017.5638,-258 2017.5638,-222 2140.4362,-222 2140.4362,-258"/>
<text text-anchor="middle" x="2079" y="-235.8" font-family="Times,serif" font-size="14.00" fill="#000000">MTA6Component </text>
</g>
<!-- Mta6Module&#45;&gt;MTA6Component  -->
<g id="edge10" class="edge">
<title>Mta6Module&#45;&gt;MTA6Component </title>
<path fill="none" stroke="#000000" stroke-dasharray="5,2" d="M2078,-190.2228C2078,-190.2228 2078,-211.7269 2078,-211.7269"/>
<polygon fill="#000000" stroke="#000000" points="2074.5001,-211.7269 2078,-221.7269 2081.5001,-211.727 2074.5001,-211.7269"/>
</g>
<!-- Mta6Module&#45;&gt;ProcessCModule -->
<g id="edge21" class="edge">
<title>Mta6Module&#45;&gt;ProcessCModule</title>
<path fill="none" stroke="#000000" d="M2033.1434,-166C1916.0516,-166 1610.1793,-166 1610.1793,-166 1610.1793,-166 1610.1793,-234 1610.1793,-234 1610.1793,-234 1513.8129,-234 1513.8129,-234"/>
<polygon fill="#000000" stroke="#000000" points="1513.813,-230.5001 1503.8129,-234 1513.8129,-237.5001 1513.813,-230.5001"/>
</g>
<!-- NewOwnerInterestComponent -->
<g id="node16" class="node">
<title>NewOwnerInterestComponent</title>
<polygon fill="#ffffb3" stroke="#000000" points="2368.8249,-122 2181.1751,-122 2181.1751,-86 2368.8249,-86 2368.8249,-122"/>
<text text-anchor="middle" x="2275" y="-99.8" font-family="Times,serif" font-size="14.00" fill="#000000">NewOwnerInterestComponent</text>
</g>
<!-- NewOwnerInterestModule -->
<g id="node17" class="node">
<title>NewOwnerInterestModule</title>
<polygon fill="#8dd3c7" stroke="#000000" points="2358.0422,-190 2355.0422,-194 2334.0422,-194 2331.0422,-190 2191.9578,-190 2191.9578,-154 2358.0422,-154 2358.0422,-190"/>
<text text-anchor="middle" x="2275" y="-167.8" font-family="Times,serif" font-size="14.00" fill="#000000">NewOwnerInterestModule</text>
</g>
<!-- NewOwnerInterestComponent&#45;&gt;NewOwnerInterestModule -->
<g id="edge11" class="edge">
<title>NewOwnerInterestComponent&#45;&gt;NewOwnerInterestModule</title>
<path fill="none" stroke="#000000" d="M2275,-122.2228C2275,-122.2228 2275,-143.7269 2275,-143.7269"/>
<polygon fill="#000000" stroke="#000000" points="2271.5001,-143.7269 2275,-153.7269 2278.5001,-143.727 2271.5001,-143.7269"/>
</g>
<!-- NewOwnerInterestComponent  -->
<g id="node18" class="node">
<title>NewOwnerInterestComponent </title>
<polygon fill="#fb8072" stroke="#000000" points="2371.8251,-258 2180.1749,-258 2180.1749,-222 2371.8251,-222 2371.8251,-258"/>
<text text-anchor="middle" x="2276" y="-235.8" font-family="Times,serif" font-size="14.00" fill="#000000">NewOwnerInterestComponent </text>
</g>
<!-- NewOwnerInterestModule&#45;&gt;NewOwnerInterestComponent  -->
<g id="edge12" class="edge">
<title>NewOwnerInterestModule&#45;&gt;NewOwnerInterestComponent </title>
<path fill="none" stroke="#000000" stroke-dasharray="5,2" d="M2302.6737,-190.2228C2302.6737,-190.2228 2302.6737,-211.7269 2302.6737,-211.7269"/>
<polygon fill="#000000" stroke="#000000" points="2299.1738,-211.7269 2302.6737,-221.7269 2306.1738,-211.727 2299.1738,-211.7269"/>
</g>
<!-- NewOwnerInterestModule&#45;&gt;ProcessCModule -->
<g id="edge22" class="edge">
<title>NewOwnerInterestModule&#45;&gt;ProcessCModule</title>
<path fill="none" stroke="#000000" d="M2247.3263,-190.0664C2247.3263,-199.4587 2247.3263,-209 2247.3263,-209 2247.3263,-209 1472.7119,-209 1472.7119,-209 1472.7119,-209 1472.7119,-211.9672 1472.7119,-211.9672"/>
<polygon fill="#000000" stroke="#000000" points="1469.212,-211.9671 1472.7119,-221.9672 1476.212,-211.9672 1469.212,-211.9671"/>
</g>
<!-- NewOwnerComponent -->
<g id="node19" class="node">
<title>NewOwnerComponent</title>
<polygon fill="#ffffb3" stroke="#000000" points="2558.8487,-122 2413.1513,-122 2413.1513,-86 2558.8487,-86 2558.8487,-122"/>
<text text-anchor="middle" x="2486" y="-99.8" font-family="Times,serif" font-size="14.00" fill="#000000">NewOwnerComponent</text>
</g>
<!-- NewOwnerModule -->
<g id="node20" class="node">
<title>NewOwnerModule</title>
<polygon fill="#8dd3c7" stroke="#000000" points="2548.066,-190 2545.066,-194 2524.066,-194 2521.066,-190 2423.934,-190 2423.934,-154 2548.066,-154 2548.066,-190"/>
<text text-anchor="middle" x="2486" y="-167.8" font-family="Times,serif" font-size="14.00" fill="#000000">NewOwnerModule</text>
</g>
<!-- NewOwnerComponent&#45;&gt;NewOwnerModule -->
<g id="edge13" class="edge">
<title>NewOwnerComponent&#45;&gt;NewOwnerModule</title>
<path fill="none" stroke="#000000" d="M2486,-122.2228C2486,-122.2228 2486,-143.7269 2486,-143.7269"/>
<polygon fill="#000000" stroke="#000000" points="2482.5001,-143.7269 2486,-153.7269 2489.5001,-143.727 2482.5001,-143.7269"/>
</g>
<!-- NewOwnerComponent  -->
<g id="node21" class="node">
<title>NewOwnerComponent </title>
<polygon fill="#fb8072" stroke="#000000" points="2561.849,-258 2412.151,-258 2412.151,-222 2561.849,-222 2561.849,-258"/>
<text text-anchor="middle" x="2487" y="-235.8" font-family="Times,serif" font-size="14.00" fill="#000000">NewOwnerComponent </text>
</g>
<!-- NewOwnerModule&#45;&gt;NewOwnerComponent  -->
<g id="edge14" class="edge">
<title>NewOwnerModule&#45;&gt;NewOwnerComponent </title>
<path fill="none" stroke="#000000" stroke-dasharray="5,2" d="M2506.6777,-190.2228C2506.6777,-190.2228 2506.6777,-211.7269 2506.6777,-211.7269"/>
<polygon fill="#000000" stroke="#000000" points="2503.1778,-211.7269 2506.6777,-221.7269 2510.1778,-211.727 2503.1778,-211.7269"/>
</g>
<!-- NewOwnerModule&#45;&gt;ProcessCModule -->
<g id="edge23" class="edge">
<title>NewOwnerModule&#45;&gt;ProcessCModule</title>
<path fill="none" stroke="#000000" d="M2465.3223,-190.1025C2465.3223,-201.0859 2465.3223,-213 2465.3223,-213 2465.3223,-213 1483.0826,-213 1483.0826,-213 1483.0826,-213 1483.0826,-213.8841 1483.0826,-213.8841"/>
<polygon fill="#000000" stroke="#000000" points="1479.5827,-211.8408 1483.0826,-221.8408 1486.5827,-211.8409 1479.5827,-211.8408"/>
</g>
<!-- OnBehalfOfOwnerComponent -->
<g id="node22" class="node">
<title>OnBehalfOfOwnerComponent</title>
<polygon fill="#ffffb3" stroke="#000000" points="2791.112,-122 2602.888,-122 2602.888,-86 2791.112,-86 2791.112,-122"/>
<text text-anchor="middle" x="2697" y="-99.8" font-family="Times,serif" font-size="14.00" fill="#000000">OnBehalfOfOwnerComponent</text>
</g>
<!-- OnBehalfOfOwnerModule -->
<g id="node23" class="node">
<title>OnBehalfOfOwnerModule</title>
<polygon fill="#8dd3c7" stroke="#000000" points="2780.3291,-190 2777.3291,-194 2756.3291,-194 2753.3291,-190 2613.6709,-190 2613.6709,-154 2780.3291,-154 2780.3291,-190"/>
<text text-anchor="middle" x="2697" y="-167.8" font-family="Times,serif" font-size="14.00" fill="#000000">OnBehalfOfOwnerModule</text>
</g>
<!-- OnBehalfOfOwnerComponent&#45;&gt;OnBehalfOfOwnerModule -->
<g id="edge15" class="edge">
<title>OnBehalfOfOwnerComponent&#45;&gt;OnBehalfOfOwnerModule</title>
<path fill="none" stroke="#000000" d="M2697,-122.2228C2697,-122.2228 2697,-143.7269 2697,-143.7269"/>
<polygon fill="#000000" stroke="#000000" points="2693.5001,-143.7269 2697,-153.7269 2700.5001,-143.727 2693.5001,-143.7269"/>
</g>
<!-- OnBehalfOfOwnerComponent  -->
<g id="node24" class="node">
<title>OnBehalfOfOwnerComponent </title>
<polygon fill="#fb8072" stroke="#000000" points="2794.1116,-258 2601.8884,-258 2601.8884,-222 2794.1116,-222 2794.1116,-258"/>
<text text-anchor="middle" x="2698" y="-235.8" font-family="Times,serif" font-size="14.00" fill="#000000">OnBehalfOfOwnerComponent </text>
</g>
<!-- OnBehalfOfOwnerModule&#45;&gt;OnBehalfOfOwnerComponent  -->
<g id="edge16" class="edge">
<title>OnBehalfOfOwnerModule&#45;&gt;OnBehalfOfOwnerComponent </title>
<path fill="none" stroke="#000000" stroke-dasharray="5,2" d="M2724.8048,-190.2228C2724.8048,-190.2228 2724.8048,-211.7269 2724.8048,-211.7269"/>
<polygon fill="#000000" stroke="#000000" points="2721.3049,-211.7269 2724.8048,-221.7269 2728.3049,-211.727 2721.3049,-211.7269"/>
</g>
<!-- OnBehalfOfOwnerModule&#45;&gt;ProcessCModule -->
<g id="edge24" class="edge">
<title>OnBehalfOfOwnerModule&#45;&gt;ProcessCModule</title>
<path fill="none" stroke="#000000" d="M2669.1952,-190.1804C2669.1952,-203.0382 2669.1952,-218 2669.1952,-218 2669.1952,-218 1493.4533,-218 1493.4533,-218 1493.4533,-218 1493.4533,-218.3832 1493.4533,-218.3832"/>
<polygon fill="#000000" stroke="#000000" points="1489.9536,-211.832 1493.4533,-221.8321 1496.9536,-211.8322 1489.9536,-211.832"/>
</g>
<!-- TransferorModule -->
<g id="node25" class="node">
<title>TransferorModule</title>
<polygon fill="#8dd3c7" stroke="#000000" points="1434.1192,-190 1431.1192,-194 1410.1192,-194 1407.1192,-190 1315.8808,-190 1315.8808,-154 1434.1192,-154 1434.1192,-190"/>
<text text-anchor="middle" x="1375" y="-167.8" font-family="Times,serif" font-size="14.00" fill="#000000">TransferorModule</text>
</g>
<!-- TransferorModule&#45;&gt;ProcessCModule -->
<g id="edge25" class="edge">
<title>TransferorModule&#45;&gt;ProcessCModule</title>
<path fill="none" stroke="#000000" d="M1425.8826,-190.2228C1425.8826,-190.2228 1425.8826,-211.7269 1425.8826,-211.7269"/>
<polygon fill="#000000" stroke="#000000" points="1422.3827,-211.7269 1425.8826,-221.7269 1429.3827,-211.727 1422.3827,-211.7269"/>
</g>
<!-- TransferorComponent  -->
<g id="node29" class="node">
<title>TransferorComponent </title>
<polygon fill="#fb8072" stroke="#000000" points="1111.9012,-258 968.0988,-258 968.0988,-222 1111.9012,-222 1111.9012,-258"/>
<text text-anchor="middle" x="1040" y="-235.8" font-family="Times,serif" font-size="14.00" fill="#000000">TransferorComponent </text>
</g>
<!-- TransferorModule&#45;&gt;TransferorComponent  -->
<g id="edge28" class="edge">
<title>TransferorModule&#45;&gt;TransferorComponent </title>
<path fill="none" stroke="#000000" stroke-dasharray="5,2" d="M1315.8799,-178C1219.708,-178 1040,-178 1040,-178 1040,-178 1040,-211.7333 1040,-211.7333"/>
<polygon fill="#000000" stroke="#000000" points="1036.5001,-211.7333 1040,-221.7333 1043.5001,-211.7333 1036.5001,-211.7333"/>
</g>
<!-- VerifyInterestModule -->
<g id="node26" class="node">
<title>VerifyInterestModule</title>
<polygon fill="#8dd3c7" stroke="#000000" points="1590.059,-190 1587.059,-194 1566.059,-194 1563.059,-190 1451.941,-190 1451.941,-154 1590.059,-154 1590.059,-190"/>
<text text-anchor="middle" x="1521" y="-167.8" font-family="Times,serif" font-size="14.00" fill="#000000">VerifyInterestModule</text>
</g>
<!-- VerifyInterestModule&#45;&gt;ProcessCModule -->
<g id="edge26" class="edge">
<title>VerifyInterestModule&#45;&gt;ProcessCModule</title>
<path fill="none" stroke="#000000" d="M1462.3412,-190.2228C1462.3412,-190.2228 1462.3412,-211.7269 1462.3412,-211.7269"/>
<polygon fill="#000000" stroke="#000000" points="1458.8413,-211.7269 1462.3412,-221.7269 1465.8413,-211.727 1458.8413,-211.7269"/>
</g>
<!-- VerifyInterestComponent  -->
<g id="node31" class="node">
<title>VerifyInterestComponent </title>
<polygon fill="#fb8072" stroke="#000000" points="1793.842,-258 1630.158,-258 1630.158,-222 1793.842,-222 1793.842,-258"/>
<text text-anchor="middle" x="1712" y="-235.8" font-family="Times,serif" font-size="14.00" fill="#000000">VerifyInterestComponent </text>
</g>
<!-- VerifyInterestModule&#45;&gt;VerifyInterestComponent  -->
<g id="edge30" class="edge">
<title>VerifyInterestModule&#45;&gt;VerifyInterestComponent </title>
<path fill="none" stroke="#000000" stroke-dasharray="5,2" d="M1546.9268,-190.2921C1546.9268,-212.2057 1546.9268,-246 1546.9268,-246 1546.9268,-246 1619.947,-246 1619.947,-246"/>
<polygon fill="#000000" stroke="#000000" points="1619.947,-249.5001 1629.947,-246 1619.947,-242.5001 1619.947,-249.5001"/>
</g>
<!-- TransferorComponent -->
<g id="node28" class="node">
<title>TransferorComponent</title>
<polygon fill="#ffffb3" stroke="#000000" points="1276.4018,-258 1135.5982,-258 1135.5982,-222 1276.4018,-222 1276.4018,-258"/>
<text text-anchor="middle" x="1206" y="-235.8" font-family="Times,serif" font-size="14.00" fill="#000000">TransferorComponent</text>
</g>
<!-- TransferorComponent&#45;&gt;TransferorModule -->
<g id="edge27" class="edge">
<title>TransferorComponent&#45;&gt;TransferorModule</title>
<path fill="none" stroke="#000000" d="M1276.5006,-246C1314.6024,-246 1353.9334,-246 1353.9334,-246 1353.9334,-246 1353.9334,-200.2921 1353.9334,-200.2921"/>
<polygon fill="#000000" stroke="#000000" points="1357.4334,-200.2921 1353.9334,-190.2921 1350.4334,-200.2922 1357.4334,-200.2921"/>
</g>
<!-- VerifyInterestComponent -->
<g id="node30" class="node">
<title>VerifyInterestComponent</title>
<polygon fill="#ffffb3" stroke="#000000" points="1977.8417,-258 1818.1583,-258 1818.1583,-222 1977.8417,-222 1977.8417,-258"/>
<text text-anchor="middle" x="1898" y="-235.8" font-family="Times,serif" font-size="14.00" fill="#000000">VerifyInterestComponent</text>
</g>
<!-- VerifyInterestComponent&#45;&gt;VerifyInterestModule -->
<g id="edge29" class="edge">
<title>VerifyInterestComponent&#45;&gt;VerifyInterestModule</title>
<path fill="none" stroke="#000000" d="M1898,-221.7333C1898,-203.4448 1898,-178 1898,-178 1898,-178 1600.1476,-178 1600.1476,-178"/>
<polygon fill="#000000" stroke="#000000" points="1600.1476,-174.5001 1590.1476,-178 1600.1476,-181.5001 1600.1476,-174.5001"/>
</g>
</g>
</svg>
