<?xml version="1.0" encoding="UTF-8" standalone="no"?>
<!DOCTYPE svg PUBLIC "-//W3C//DTD SVG 1.1//EN"
 "http://www.w3.org/Graphics/SVG/1.1/DTD/svg11.dtd">
<!-- Generated by graphviz version 2.40.1 (20161225.0304)
 -->
<!-- Title: dependencies Pages: 1 -->
<svg width="820pt" height="284pt"
 viewBox="0.00 0.00 820.00 284.00" xmlns="http://www.w3.org/2000/svg" xmlns:xlink="http://www.w3.org/1999/xlink">
<g id="graph0" class="graph" transform="scale(1 1) rotate(0) translate(4 280)">
<title>dependencies</title>
<polygon fill="#ffffff" stroke="transparent" points="-4,4 -4,-280 816,-280 816,4 -4,4"/>
<text text-anchor="start" x="385.0091" y="-42.4" font-family="sans-serif" font-weight="bold" font-size="14.00" fill="#000000">Legend</text>
<polygon fill="#ffffb3" stroke="transparent" points="172,-10 172,-30 192,-30 192,-10 172,-10"/>
<text text-anchor="start" x="195.629" y="-15.4" font-family="sans-serif" font-size="14.00" fill="#000000"> &#160;Declarations</text>
<polygon fill="#8dd3c7" stroke="transparent" points="285,-10 285,-30 305,-30 305,-10 285,-10"/>
<text text-anchor="start" x="308.7251" y="-15.4" font-family="sans-serif" font-size="14.00" fill="#000000"> &#160;Module</text>
<polygon fill="#80b1d3" stroke="transparent" points="371,-10 371,-30 391,-30 391,-10 371,-10"/>
<text text-anchor="start" x="394.7812" y="-15.4" font-family="sans-serif" font-size="14.00" fill="#000000"> &#160;Bootstrap</text>
<polygon fill="#fdb462" stroke="transparent" points="468,-10 468,-30 488,-30 488,-10 468,-10"/>
<text text-anchor="start" x="491.6732" y="-15.4" font-family="sans-serif" font-size="14.00" fill="#000000"> &#160;Providers</text>
<polygon fill="#fb8072" stroke="transparent" points="564,-10 564,-30 584,-30 584,-10 564,-10"/>
<text text-anchor="start" x="587.7258" y="-15.4" font-family="sans-serif" font-size="14.00" fill="#000000"> &#160;Exports</text>
<g id="clust1" class="cluster">
<title>cluster_QuestionModule</title>
<polygon fill="none" stroke="#000000" stroke-dasharray="1,5" points="8,-70 8,-268 804,-268 804,-70 8,-70"/>
</g>
<g id="clust2" class="cluster">
<title>cluster_QuestionModule_declarations</title>
<polygon fill="none" stroke="#000000" points="416,-78 416,-130 796,-130 796,-78 416,-78"/>
</g>
<g id="clust6" class="cluster">
<title>cluster_QuestionModule_exports</title>
<polygon fill="none" stroke="#000000" points="315,-208 315,-260 497,-260 497,-208 315,-208"/>
</g>
<g id="clust8" class="cluster">
<title>cluster_QuestionModule_providers</title>
<polygon fill="none" stroke="#000000" points="16,-78 16,-130 408,-130 408,-78 16,-78"/>
</g>
<!-- DynamicFormComponent -->
<g id="node1" class="node">
<title>DynamicFormComponent</title>
<polygon fill="#ffffb3" stroke="#000000" points="788.4832,-122 625.5168,-122 625.5168,-86 788.4832,-86 788.4832,-122"/>
<text text-anchor="middle" x="707" y="-99.8" font-family="Times,serif" font-size="14.00" fill="#000000">DynamicFormComponent</text>
</g>
<!-- QuestionModule -->
<g id="node3" class="node">
<title>QuestionModule</title>
<polygon fill="#8dd3c7" stroke="#000000" points="461.0968,-187 458.0968,-191 437.0968,-191 434.0968,-187 350.9032,-187 350.9032,-151 461.0968,-151 461.0968,-187"/>
<text text-anchor="middle" x="406" y="-164.8" font-family="Times,serif" font-size="14.00" fill="#000000">QuestionModule</text>
</g>
<!-- DynamicFormComponent&#45;&gt;QuestionModule -->
<g id="edge1" class="edge">
<title>DynamicFormComponent&#45;&gt;QuestionModule</title>
<path fill="none" stroke="#000000" d="M707,-122.1061C707,-141.3391 707,-169 707,-169 707,-169 471.208,-169 471.208,-169"/>
<polygon fill="#000000" stroke="#000000" points="471.2081,-165.5001 461.208,-169 471.208,-172.5001 471.2081,-165.5001"/>
</g>
<!-- DynamicQuestionComponent -->
<g id="node2" class="node">
<title>DynamicQuestionComponent</title>
<polygon fill="#ffffb3" stroke="#000000" points="607.6965,-122 424.3035,-122 424.3035,-86 607.6965,-86 607.6965,-122"/>
<text text-anchor="middle" x="516" y="-99.8" font-family="Times,serif" font-size="14.00" fill="#000000">DynamicQuestionComponent</text>
</g>
<!-- DynamicQuestionComponent&#45;&gt;QuestionModule -->
<g id="edge2" class="edge">
<title>DynamicQuestionComponent&#45;&gt;QuestionModule</title>
<path fill="none" stroke="#000000" d="M442.7251,-122.1061C442.7251,-122.1061 442.7251,-140.991 442.7251,-140.991"/>
<polygon fill="#000000" stroke="#000000" points="439.2252,-140.9909 442.7251,-150.991 446.2252,-140.991 439.2252,-140.9909"/>
</g>
<!-- DynamicFormComponent  -->
<g id="node4" class="node">
<title>DynamicFormComponent </title>
<polygon fill="#fb8072" stroke="#000000" points="489.4839,-252 322.5161,-252 322.5161,-216 489.4839,-216 489.4839,-252"/>
<text text-anchor="middle" x="406" y="-229.8" font-family="Times,serif" font-size="14.00" fill="#000000">DynamicFormComponent </text>
</g>
<!-- QuestionModule&#45;&gt;DynamicFormComponent  -->
<g id="edge3" class="edge">
<title>QuestionModule&#45;&gt;DynamicFormComponent </title>
<path fill="none" stroke="#000000" stroke-dasharray="5,2" d="M406,-187.1061C406,-187.1061 406,-205.991 406,-205.991"/>
<polygon fill="#000000" stroke="#000000" points="402.5001,-205.9909 406,-215.991 409.5001,-205.991 402.5001,-205.9909"/>
</g>
<!-- QuestionControlService -->
<g id="node5" class="node">
<title>QuestionControlService</title>
<ellipse fill="#fdb462" stroke="#000000" cx="296" cy="-104" rx="104.2323" ry="18"/>
<text text-anchor="middle" x="296" y="-99.8" font-family="Times,serif" font-size="14.00" fill="#000000">QuestionControlService</text>
</g>
<!-- QuestionControlService&#45;&gt;QuestionModule -->
<g id="edge4" class="edge">
<title>QuestionControlService&#45;&gt;QuestionModule</title>
<path fill="none" stroke="#000000" d="M375.6588,-115.922C375.6588,-115.922 375.6588,-140.7669 375.6588,-140.7669"/>
<polygon fill="#000000" stroke="#000000" points="372.1589,-140.7669 375.6588,-150.7669 379.1589,-140.7669 372.1589,-140.7669"/>
</g>
<!-- QuestionService -->
<g id="node6" class="node">
<title>QuestionService</title>
<ellipse fill="#fdb462" stroke="#000000" cx="99" cy="-104" rx="74.7168" ry="18"/>
<text text-anchor="middle" x="99" y="-99.8" font-family="Times,serif" font-size="14.00" fill="#000000">QuestionService</text>
</g>
<!-- QuestionService&#45;&gt;QuestionModule -->
<g id="edge5" class="edge">
<title>QuestionService&#45;&gt;QuestionModule</title>
<path fill="none" stroke="#000000" d="M99,-122.1061C99,-141.3391 99,-169 99,-169 99,-169 340.76,-169 340.76,-169"/>
<polygon fill="#000000" stroke="#000000" points="340.76,-172.5001 350.76,-169 340.76,-165.5001 340.76,-172.5001"/>
</g>
</g>
</svg>
