<?xml version="1.0" encoding="UTF-8" standalone="no"?>
<!DOCTYPE svg PUBLIC "-//W3C//DTD SVG 1.1//EN"
 "http://www.w3.org/Graphics/SVG/1.1/DTD/svg11.dtd">
<!-- Generated by graphviz version 2.40.1 (20161225.0304)
 -->
<!-- Title: dependencies Pages: 1 -->
<svg width="1704pt" height="211pt"
 viewBox="0.00 0.00 1704.00 211.00" xmlns="http://www.w3.org/2000/svg" xmlns:xlink="http://www.w3.org/1999/xlink">
<g id="graph0" class="graph" transform="scale(1 1) rotate(0) translate(4 207)">
<title>dependencies</title>
<polygon fill="#ffffff" stroke="transparent" points="-4,4 -4,-207 1700,-207 1700,4 -4,4"/>
<text text-anchor="start" x="827.0091" y="-42.4" font-family="sans-serif" font-weight="bold" font-size="14.00" fill="#000000">Legend</text>
<polygon fill="#ffffb3" stroke="transparent" points="614,-10 614,-30 634,-30 634,-10 614,-10"/>
<text text-anchor="start" x="637.629" y="-15.4" font-family="sans-serif" font-size="14.00" fill="#000000"> &#160;Declarations</text>
<polygon fill="#8dd3c7" stroke="transparent" points="727,-10 727,-30 747,-30 747,-10 727,-10"/>
<text text-anchor="start" x="750.7251" y="-15.4" font-family="sans-serif" font-size="14.00" fill="#000000"> &#160;Module</text>
<polygon fill="#80b1d3" stroke="transparent" points="813,-10 813,-30 833,-30 833,-10 813,-10"/>
<text text-anchor="start" x="836.7812" y="-15.4" font-family="sans-serif" font-size="14.00" fill="#000000"> &#160;Bootstrap</text>
<polygon fill="#fdb462" stroke="transparent" points="910,-10 910,-30 930,-30 930,-10 910,-10"/>
<text text-anchor="start" x="933.6732" y="-15.4" font-family="sans-serif" font-size="14.00" fill="#000000"> &#160;Providers</text>
<polygon fill="#fb8072" stroke="transparent" points="1006,-10 1006,-30 1026,-30 1026,-10 1006,-10"/>
<text text-anchor="start" x="1029.7258" y="-15.4" font-family="sans-serif" font-size="14.00" fill="#000000"> &#160;Exports</text>
<g id="clust1" class="cluster">
<title>cluster_ProcessCModule</title>
<polygon fill="none" stroke="#000000" stroke-dasharray="1,5" points="8,-70 8,-195 1688,-195 1688,-70 8,-70"/>
</g>
<g id="clust3" class="cluster">
<title>cluster_ProcessCModule_imports</title>
<polygon fill="none" stroke="#000000" points="16,-78 16,-130 1680,-130 1680,-78 16,-78"/>
</g>
<!-- CurrentOwnerInterestModule -->
<g id="node1" class="node">
<title>CurrentOwnerInterestModule</title>
<polygon fill="#8dd3c7" stroke="#000000" points="1672.3778,-122 1669.3778,-126 1648.3778,-126 1645.3778,-122 1489.6222,-122 1489.6222,-86 1672.3778,-86 1672.3778,-122"/>
<text text-anchor="middle" x="1581" y="-99.8" font-family="Times,serif" font-size="14.00" fill="#000000">CurrentOwnerInterestModule</text>
</g>
<!-- ProcessCModule -->
<g id="node11" class="node">
<title>ProcessCModule</title>
<polygon fill="#8dd3c7" stroke="#000000" points="854.6486,-187 851.6486,-191 830.6486,-191 827.6486,-187 743.3514,-187 743.3514,-151 854.6486,-151 854.6486,-187"/>
<text text-anchor="middle" x="799" y="-164.8" font-family="Times,serif" font-size="14.00" fill="#000000">ProcessCModule</text>
</g>
<!-- CurrentOwnerInterestModule&#45;&gt;ProcessCModule -->
<g id="edge1" class="edge">
<title>CurrentOwnerInterestModule&#45;&gt;ProcessCModule</title>
<path fill="none" stroke="#000000" d="M1581,-122.0109C1581,-144.4852 1581,-180 1581,-180 1581,-180 864.9257,-180 864.9257,-180"/>
<polygon fill="#000000" stroke="#000000" points="864.9257,-176.5001 854.9257,-180 864.9256,-183.5001 864.9257,-176.5001"/>
</g>
<!-- DocumentsModule -->
<g id="node2" class="node">
<title>DocumentsModule</title>
<polygon fill="#8dd3c7" stroke="#000000" points="1471.8118,-122 1468.8118,-126 1447.8118,-126 1444.8118,-122 1348.1882,-122 1348.1882,-86 1471.8118,-86 1471.8118,-122"/>
<text text-anchor="middle" x="1410" y="-99.8" font-family="Times,serif" font-size="14.00" fill="#000000">DocumentsModule</text>
</g>
<!-- DocumentsModule&#45;&gt;ProcessCModule -->
<g id="edge2" class="edge">
<title>DocumentsModule&#45;&gt;ProcessCModule</title>
<path fill="none" stroke="#000000" d="M1410,-122.1289C1410,-142.5724 1410,-173 1410,-173 1410,-173 864.8419,-173 864.8419,-173"/>
<polygon fill="#000000" stroke="#000000" points="864.842,-169.5001 854.8419,-173 864.8419,-176.5001 864.842,-169.5001"/>
</g>
<!-- IdentifyNewOwnerModule -->
<g id="node3" class="node">
<title>IdentifyNewOwnerModule</title>
<polygon fill="#8dd3c7" stroke="#000000" points="1330.3834,-122 1327.3834,-126 1306.3834,-126 1303.3834,-122 1161.6166,-122 1161.6166,-86 1330.3834,-86 1330.3834,-122"/>
<text text-anchor="middle" x="1246" y="-99.8" font-family="Times,serif" font-size="14.00" fill="#000000">IdentifyNewOwnerModule</text>
</g>
<!-- IdentifyNewOwnerModule&#45;&gt;ProcessCModule -->
<g id="edge3" class="edge">
<title>IdentifyNewOwnerModule&#45;&gt;ProcessCModule</title>
<path fill="none" stroke="#000000" d="M1246,-122.2667C1246,-140.5552 1246,-166 1246,-166 1246,-166 864.7091,-166 864.7091,-166"/>
<polygon fill="#000000" stroke="#000000" points="864.7091,-162.5001 854.7091,-166 864.709,-169.5001 864.7091,-162.5001"/>
</g>
<!-- IdentifyVehicleAndOwnerModule -->
<g id="node4" class="node">
<title>IdentifyVehicleAndOwnerModule</title>
<polygon fill="#8dd3c7" stroke="#000000" points="1143.5938,-122 1140.5938,-126 1119.5938,-126 1116.5938,-122 934.4062,-122 934.4062,-86 1143.5938,-86 1143.5938,-122"/>
<text text-anchor="middle" x="1039" y="-99.8" font-family="Times,serif" font-size="14.00" fill="#000000">IdentifyVehicleAndOwnerModule</text>
</g>
<!-- IdentifyVehicleAndOwnerModule&#45;&gt;ProcessCModule -->
<g id="edge4" class="edge">
<title>IdentifyVehicleAndOwnerModule&#45;&gt;ProcessCModule</title>
<path fill="none" stroke="#000000" d="M1039,-122.0091C1039,-138.0494 1039,-159 1039,-159 1039,-159 864.6641,-159 864.6641,-159"/>
<polygon fill="#000000" stroke="#000000" points="864.6641,-155.5001 854.6641,-159 864.664,-162.5001 864.6641,-155.5001"/>
</g>
<!-- Mta6Module -->
<g id="node5" class="node">
<title>Mta6Module</title>
<polygon fill="#8dd3c7" stroke="#000000" points="916.5997,-122 913.5997,-126 892.5997,-126 889.5997,-122 827.4003,-122 827.4003,-86 916.5997,-86 916.5997,-122"/>
<text text-anchor="middle" x="872" y="-99.8" font-family="Times,serif" font-size="14.00" fill="#000000">Mta6Module</text>
</g>
<!-- Mta6Module&#45;&gt;ProcessCModule -->
<g id="edge5" class="edge">
<title>Mta6Module&#45;&gt;ProcessCModule</title>
<path fill="none" stroke="#000000" d="M841.1371,-122.1061C841.1371,-122.1061 841.1371,-140.991 841.1371,-140.991"/>
<polygon fill="#000000" stroke="#000000" points="837.6372,-140.9909 841.1371,-150.991 844.6372,-140.991 837.6372,-140.9909"/>
</g>
<!-- NewOwnerInterestModule -->
<g id="node6" class="node">
<title>NewOwnerInterestModule</title>
<polygon fill="#8dd3c7" stroke="#000000" points="809.0422,-122 806.0422,-126 785.0422,-126 782.0422,-122 642.9578,-122 642.9578,-86 809.0422,-86 809.0422,-122"/>
<text text-anchor="middle" x="726" y="-99.8" font-family="Times,serif" font-size="14.00" fill="#000000">NewOwnerInterestModule</text>
</g>
<!-- NewOwnerInterestModule&#45;&gt;ProcessCModule -->
<g id="edge6" class="edge">
<title>NewOwnerInterestModule&#45;&gt;ProcessCModule</title>
<path fill="none" stroke="#000000" d="M776.0986,-122.1061C776.0986,-122.1061 776.0986,-140.991 776.0986,-140.991"/>
<polygon fill="#000000" stroke="#000000" points="772.5986,-140.9909 776.0986,-150.991 779.5986,-140.991 772.5986,-140.9909"/>
</g>
<!-- NewOwnerModule -->
<g id="node7" class="node">
<title>NewOwnerModule</title>
<polygon fill="#8dd3c7" stroke="#000000" points="625.066,-122 622.066,-126 601.066,-126 598.066,-122 500.934,-122 500.934,-86 625.066,-86 625.066,-122"/>
<text text-anchor="middle" x="563" y="-99.8" font-family="Times,serif" font-size="14.00" fill="#000000">NewOwnerModule</text>
</g>
<!-- NewOwnerModule&#45;&gt;ProcessCModule -->
<g id="edge7" class="edge">
<title>NewOwnerModule&#45;&gt;ProcessCModule</title>
<path fill="none" stroke="#000000" d="M563,-122.0091C563,-138.0494 563,-159 563,-159 563,-159 733.0713,-159 733.0713,-159"/>
<polygon fill="#000000" stroke="#000000" points="733.0713,-162.5001 743.0713,-159 733.0713,-155.5001 733.0713,-162.5001"/>
</g>
<!-- OnBehalfOfOwnerModule -->
<g id="node8" class="node">
<title>OnBehalfOfOwnerModule</title>
<polygon fill="#8dd3c7" stroke="#000000" points="483.3291,-122 480.3291,-126 459.3291,-126 456.3291,-122 316.6709,-122 316.6709,-86 483.3291,-86 483.3291,-122"/>
<text text-anchor="middle" x="400" y="-99.8" font-family="Times,serif" font-size="14.00" fill="#000000">OnBehalfOfOwnerModule</text>
</g>
<!-- OnBehalfOfOwnerModule&#45;&gt;ProcessCModule -->
<g id="edge8" class="edge">
<title>OnBehalfOfOwnerModule&#45;&gt;ProcessCModule</title>
<path fill="none" stroke="#000000" d="M400,-122.2667C400,-140.5552 400,-166 400,-166 400,-166 733.1006,-166 733.1006,-166"/>
<polygon fill="#000000" stroke="#000000" points="733.1007,-169.5001 743.1006,-166 733.1006,-162.5001 733.1007,-169.5001"/>
</g>
<!-- TransferorModule -->
<g id="node9" class="node">
<title>TransferorModule</title>
<polygon fill="#8dd3c7" stroke="#000000" points="298.1192,-122 295.1192,-126 274.1192,-126 271.1192,-122 179.8808,-122 179.8808,-86 298.1192,-86 298.1192,-122"/>
<text text-anchor="middle" x="239" y="-99.8" font-family="Times,serif" font-size="14.00" fill="#000000">TransferorModule</text>
</g>
<!-- TransferorModule&#45;&gt;ProcessCModule -->
<g id="edge9" class="edge">
<title>TransferorModule&#45;&gt;ProcessCModule</title>
<path fill="none" stroke="#000000" d="M239,-122.1289C239,-142.5724 239,-173 239,-173 239,-173 733.2577,-173 733.2577,-173"/>
<polygon fill="#000000" stroke="#000000" points="733.2578,-176.5001 743.2577,-173 733.2577,-169.5001 733.2578,-176.5001"/>
</g>
<!-- VerifyInterestModule -->
<g id="node10" class="node">
<title>VerifyInterestModule</title>
<polygon fill="#8dd3c7" stroke="#000000" points="162.059,-122 159.059,-126 138.059,-126 135.059,-122 23.941,-122 23.941,-86 162.059,-86 162.059,-122"/>
<text text-anchor="middle" x="93" y="-99.8" font-family="Times,serif" font-size="14.00" fill="#000000">VerifyInterestModule</text>
</g>
<!-- VerifyInterestModule&#45;&gt;ProcessCModule -->
<g id="edge10" class="edge">
<title>VerifyInterestModule&#45;&gt;ProcessCModule</title>
<path fill="none" stroke="#000000" d="M93,-122.0109C93,-144.4852 93,-180 93,-180 93,-180 733.3066,-180 733.3066,-180"/>
<polygon fill="#000000" stroke="#000000" points="733.3067,-183.5001 743.3066,-180 733.3066,-176.5001 733.3067,-183.5001"/>
</g>
</g>
</svg>
