<?xml version="1.0" encoding="UTF-8" standalone="no"?>
<!DOCTYPE svg PUBLIC "-//W3C//DTD SVG 1.1//EN"
 "http://www.w3.org/Graphics/SVG/1.1/DTD/svg11.dtd">
<!-- Generated by graphviz version 2.40.1 (20161225.0304)
 -->
<!-- Title: dependencies Pages: 1 -->
<svg width="1056pt" height="284pt"
 viewBox="0.00 0.00 1056.00 284.00" xmlns="http://www.w3.org/2000/svg" xmlns:xlink="http://www.w3.org/1999/xlink">
<g id="graph0" class="graph" transform="scale(1 1) rotate(0) translate(4 280)">
<title>dependencies</title>
<polygon fill="#ffffff" stroke="transparent" points="-4,4 -4,-280 1052,-280 1052,4 -4,4"/>
<text text-anchor="start" x="503.0091" y="-42.4" font-family="sans-serif" font-weight="bold" font-size="14.00" fill="#000000">Legend</text>
<polygon fill="#ffffb3" stroke="transparent" points="290,-10 290,-30 310,-30 310,-10 290,-10"/>
<text text-anchor="start" x="313.629" y="-15.4" font-family="sans-serif" font-size="14.00" fill="#000000"> &#160;Declarations</text>
<polygon fill="#8dd3c7" stroke="transparent" points="403,-10 403,-30 423,-30 423,-10 403,-10"/>
<text text-anchor="start" x="426.7251" y="-15.4" font-family="sans-serif" font-size="14.00" fill="#000000"> &#160;Module</text>
<polygon fill="#80b1d3" stroke="transparent" points="489,-10 489,-30 509,-30 509,-10 489,-10"/>
<text text-anchor="start" x="512.7812" y="-15.4" font-family="sans-serif" font-size="14.00" fill="#000000"> &#160;Bootstrap</text>
<polygon fill="#fdb462" stroke="transparent" points="586,-10 586,-30 606,-30 606,-10 586,-10"/>
<text text-anchor="start" x="609.6732" y="-15.4" font-family="sans-serif" font-size="14.00" fill="#000000"> &#160;Providers</text>
<polygon fill="#fb8072" stroke="transparent" points="682,-10 682,-30 702,-30 702,-10 682,-10"/>
<text text-anchor="start" x="705.7258" y="-15.4" font-family="sans-serif" font-size="14.00" fill="#000000"> &#160;Exports</text>
<g id="clust1" class="cluster">
<title>cluster_InitialEntityRegistrationModule</title>
<polygon fill="none" stroke="#000000" stroke-dasharray="1,5" points="8,-70 8,-268 1040,-268 1040,-70 8,-70"/>
</g>
<g id="clust2" class="cluster">
<title>cluster_InitialEntityRegistrationModule_declarations</title>
<polygon fill="none" stroke="#000000" points="280,-78 280,-130 1032,-130 1032,-78 280,-78"/>
</g>
<g id="clust6" class="cluster">
<title>cluster_InitialEntityRegistrationModule_imports</title>
<polygon fill="none" stroke="#000000" points="16,-78 16,-130 272,-130 272,-78 16,-78"/>
</g>
<g id="clust7" class="cluster">
<title>cluster_InitialEntityRegistrationModule_exports</title>
<polygon fill="none" stroke="#000000" points="159,-208 159,-260 921,-260 921,-208 159,-208"/>
</g>
<!-- ForeignerPermanentAddressDetailsComponent -->
<g id="node1" class="node">
<title>ForeignerPermanentAddressDetailsComponent</title>
<polygon fill="#ffffb3" stroke="#000000" points="1023.6474,-122 742.3526,-122 742.3526,-86 1023.6474,-86 1023.6474,-122"/>
<text text-anchor="middle" x="883" y="-99.8" font-family="Times,serif" font-size="14.00" fill="#000000">ForeignerPermanentAddressDetailsComponent</text>
</g>
<!-- InitialEntityRegistrationModule -->
<g id="node4" class="node">
<title>InitialEntityRegistrationModule</title>
<polygon fill="#8dd3c7" stroke="#000000" points="605.6455,-187 602.6455,-191 581.6455,-191 578.6455,-187 410.3545,-187 410.3545,-151 605.6455,-151 605.6455,-187"/>
<text text-anchor="middle" x="508" y="-164.8" font-family="Times,serif" font-size="14.00" fill="#000000">InitialEntityRegistrationModule</text>
</g>
<!-- ForeignerPermanentAddressDetailsComponent&#45;&gt;InitialEntityRegistrationModule -->
<g id="edge1" class="edge">
<title>ForeignerPermanentAddressDetailsComponent&#45;&gt;InitialEntityRegistrationModule</title>
<path fill="none" stroke="#000000" d="M827.875,-122.0225C827.875,-139.3734 827.875,-163 827.875,-163 827.875,-163 615.7111,-163 615.7111,-163"/>
<polygon fill="#000000" stroke="#000000" points="615.7112,-159.5001 605.7111,-163 615.7111,-166.5001 615.7112,-159.5001"/>
</g>
<!-- ForeignerVisaDetailsComponent -->
<g id="node2" class="node">
<title>ForeignerVisaDetailsComponent</title>
<polygon fill="#ffffb3" stroke="#000000" points="724.5646,-122 523.4354,-122 523.4354,-86 724.5646,-86 724.5646,-122"/>
<text text-anchor="middle" x="624" y="-99.8" font-family="Times,serif" font-size="14.00" fill="#000000">ForeignerVisaDetailsComponent</text>
</g>
<!-- ForeignerVisaDetailsComponent&#45;&gt;InitialEntityRegistrationModule -->
<g id="edge2" class="edge">
<title>ForeignerVisaDetailsComponent&#45;&gt;InitialEntityRegistrationModule</title>
<path fill="none" stroke="#000000" d="M564.6452,-122.1061C564.6452,-122.1061 564.6452,-140.991 564.6452,-140.991"/>
<polygon fill="#000000" stroke="#000000" points="561.1452,-140.9909 564.6452,-150.991 568.1452,-140.991 561.1452,-140.9909"/>
</g>
<!-- InitialEntityRegistrationComponent -->
<g id="node3" class="node">
<title>InitialEntityRegistrationComponent</title>
<polygon fill="#ffffb3" stroke="#000000" points="505.9282,-122 288.0718,-122 288.0718,-86 505.9282,-86 505.9282,-122"/>
<text text-anchor="middle" x="397" y="-99.8" font-family="Times,serif" font-size="14.00" fill="#000000">InitialEntityRegistrationComponent</text>
</g>
<!-- InitialEntityRegistrationComponent&#45;&gt;InitialEntityRegistrationModule -->
<g id="edge3" class="edge">
<title>InitialEntityRegistrationComponent&#45;&gt;InitialEntityRegistrationModule</title>
<path fill="none" stroke="#000000" d="M457.9457,-122.1061C457.9457,-122.1061 457.9457,-140.991 457.9457,-140.991"/>
<polygon fill="#000000" stroke="#000000" points="454.4457,-140.9909 457.9457,-150.991 461.4457,-140.991 454.4457,-140.9909"/>
</g>
<!-- ForeignerPermanentAddressDetailsComponent  -->
<g id="node6" class="node">
<title>ForeignerPermanentAddressDetailsComponent </title>
<polygon fill="#fb8072" stroke="#000000" points="913.1476,-252 628.8524,-252 628.8524,-216 913.1476,-216 913.1476,-252"/>
<text text-anchor="middle" x="771" y="-229.8" font-family="Times,serif" font-size="14.00" fill="#000000">ForeignerPermanentAddressDetailsComponent </text>
</g>
<!-- InitialEntityRegistrationModule&#45;&gt;ForeignerPermanentAddressDetailsComponent  -->
<g id="edge5" class="edge">
<title>InitialEntityRegistrationModule&#45;&gt;ForeignerPermanentAddressDetailsComponent </title>
<path fill="none" stroke="#000000" stroke-dasharray="5,2" d="M606.0778,-175C643.1695,-175 676.6043,-175 676.6043,-175 676.6043,-175 676.6043,-205.9775 676.6043,-205.9775"/>
<polygon fill="#000000" stroke="#000000" points="673.1044,-205.9774 676.6043,-215.9775 680.1044,-205.9775 673.1044,-205.9774"/>
</g>
<!-- ForeignerVisaDetailsComponent  -->
<g id="node7" class="node">
<title>ForeignerVisaDetailsComponent </title>
<polygon fill="#fb8072" stroke="#000000" points="610.0651,-252 405.9349,-252 405.9349,-216 610.0651,-216 610.0651,-252"/>
<text text-anchor="middle" x="508" y="-229.8" font-family="Times,serif" font-size="14.00" fill="#000000">ForeignerVisaDetailsComponent </text>
</g>
<!-- InitialEntityRegistrationModule&#45;&gt;ForeignerVisaDetailsComponent  -->
<g id="edge6" class="edge">
<title>InitialEntityRegistrationModule&#45;&gt;ForeignerVisaDetailsComponent </title>
<path fill="none" stroke="#000000" stroke-dasharray="5,2" d="M508,-187.1061C508,-187.1061 508,-205.991 508,-205.991"/>
<polygon fill="#000000" stroke="#000000" points="504.5001,-205.9909 508,-215.991 511.5001,-205.991 504.5001,-205.9909"/>
</g>
<!-- InitialEntityRegistrationComponent  -->
<g id="node8" class="node">
<title>InitialEntityRegistrationComponent </title>
<polygon fill="#fb8072" stroke="#000000" points="387.4278,-252 166.5722,-252 166.5722,-216 387.4278,-216 387.4278,-252"/>
<text text-anchor="middle" x="277" y="-229.8" font-family="Times,serif" font-size="14.00" fill="#000000">InitialEntityRegistrationComponent </text>
</g>
<!-- InitialEntityRegistrationModule&#45;&gt;InitialEntityRegistrationComponent  -->
<g id="edge7" class="edge">
<title>InitialEntityRegistrationModule&#45;&gt;InitialEntityRegistrationComponent </title>
<path fill="none" stroke="#000000" stroke-dasharray="5,2" d="M410.0233,-175C372.2058,-175 337.875,-175 337.875,-175 337.875,-175 337.875,-205.9775 337.875,-205.9775"/>
<polygon fill="#000000" stroke="#000000" points="334.3751,-205.9774 337.875,-215.9775 341.3751,-205.9775 334.3751,-205.9774"/>
</g>
<!-- InitialEntityRegistrationRoutingModule -->
<g id="node5" class="node">
<title>InitialEntityRegistrationRoutingModule</title>
<polygon fill="#8dd3c7" stroke="#000000" points="264.2631,-122 261.2631,-126 240.2631,-126 237.2631,-122 23.7369,-122 23.7369,-86 264.2631,-86 264.2631,-122"/>
<text text-anchor="middle" x="144" y="-99.8" font-family="Times,serif" font-size="14.00" fill="#000000">InitialEntityRegistrationRoutingModule</text>
</g>
<!-- InitialEntityRegistrationRoutingModule&#45;&gt;InitialEntityRegistrationModule -->
<g id="edge4" class="edge">
<title>InitialEntityRegistrationRoutingModule&#45;&gt;InitialEntityRegistrationModule</title>
<path fill="none" stroke="#000000" d="M215.4588,-122.0225C215.4588,-139.3734 215.4588,-163 215.4588,-163 215.4588,-163 400.1813,-163 400.1813,-163"/>
<polygon fill="#000000" stroke="#000000" points="400.1813,-166.5001 410.1813,-163 400.1813,-159.5001 400.1813,-166.5001"/>
</g>
</g>
</svg>
