<?xml version="1.0" encoding="UTF-8" standalone="no"?>
<!DOCTYPE svg PUBLIC "-//W3C//DTD SVG 1.1//EN"
 "http://www.w3.org/Graphics/SVG/1.1/DTD/svg11.dtd">
<!-- Generated by graphviz version 2.40.1 (20161225.0304)
 -->
<!-- Title: dependencies Pages: 1 -->
<svg width="760pt" height="284pt"
 viewBox="0.00 0.00 760.00 284.00" xmlns="http://www.w3.org/2000/svg" xmlns:xlink="http://www.w3.org/1999/xlink">
<g id="graph0" class="graph" transform="scale(1 1) rotate(0) translate(4 280)">
<title>dependencies</title>
<polygon fill="#ffffff" stroke="transparent" points="-4,4 -4,-280 756,-280 756,4 -4,4"/>
<text text-anchor="start" x="355.0091" y="-42.4" font-family="sans-serif" font-weight="bold" font-size="14.00" fill="#000000">Legend</text>
<polygon fill="#ffffb3" stroke="transparent" points="142,-10 142,-30 162,-30 162,-10 142,-10"/>
<text text-anchor="start" x="165.629" y="-15.4" font-family="sans-serif" font-size="14.00" fill="#000000"> &#160;Declarations</text>
<polygon fill="#8dd3c7" stroke="transparent" points="255,-10 255,-30 275,-30 275,-10 255,-10"/>
<text text-anchor="start" x="278.7251" y="-15.4" font-family="sans-serif" font-size="14.00" fill="#000000"> &#160;Module</text>
<polygon fill="#80b1d3" stroke="transparent" points="341,-10 341,-30 361,-30 361,-10 341,-10"/>
<text text-anchor="start" x="364.7812" y="-15.4" font-family="sans-serif" font-size="14.00" fill="#000000"> &#160;Bootstrap</text>
<polygon fill="#fdb462" stroke="transparent" points="438,-10 438,-30 458,-30 458,-10 438,-10"/>
<text text-anchor="start" x="461.6732" y="-15.4" font-family="sans-serif" font-size="14.00" fill="#000000"> &#160;Providers</text>
<polygon fill="#fb8072" stroke="transparent" points="534,-10 534,-30 554,-30 554,-10 534,-10"/>
<text text-anchor="start" x="557.7258" y="-15.4" font-family="sans-serif" font-size="14.00" fill="#000000"> &#160;Exports</text>
<g id="clust1" class="cluster">
<title>cluster_AppModule</title>
<polygon fill="none" stroke="#000000" stroke-dasharray="1,5" points="8,-70 8,-268 744,-268 744,-70 8,-70"/>
</g>
<g id="clust2" class="cluster">
<title>cluster_AppModule_declarations</title>
<polygon fill="none" stroke="#000000" points="614,-78 614,-130 736,-130 736,-78 614,-78"/>
</g>
<g id="clust4" class="cluster">
<title>cluster_AppModule_imports</title>
<polygon fill="none" stroke="#000000" points="368,-78 368,-130 606,-130 606,-78 368,-78"/>
</g>
<g id="clust6" class="cluster">
<title>cluster_AppModule_bootstrap</title>
<polygon fill="none" stroke="#000000" points="363,-208 363,-260 487,-260 487,-208 363,-208"/>
</g>
<g id="clust7" class="cluster">
<title>cluster_AppModule_providers</title>
<polygon fill="none" stroke="#000000" points="16,-78 16,-130 360,-130 360,-78 16,-78"/>
</g>
<!-- AppComponent -->
<g id="node1" class="node">
<title>AppComponent</title>
<polygon fill="#ffffb3" stroke="#000000" points="727.9399,-122 622.0601,-122 622.0601,-86 727.9399,-86 727.9399,-122"/>
<text text-anchor="middle" x="675" y="-99.8" font-family="Times,serif" font-size="14.00" fill="#000000">AppComponent</text>
</g>
<!-- AppModule -->
<g id="node2" class="node">
<title>AppModule</title>
<polygon fill="#8dd3c7" stroke="#000000" points="466.6571,-187 463.6571,-191 442.6571,-191 439.6571,-187 383.3429,-187 383.3429,-151 466.6571,-151 466.6571,-187"/>
<text text-anchor="middle" x="425" y="-164.8" font-family="Times,serif" font-size="14.00" fill="#000000">AppModule</text>
</g>
<!-- AppComponent&#45;&gt;AppModule -->
<g id="edge1" class="edge">
<title>AppComponent&#45;&gt;AppModule</title>
<path fill="none" stroke="#000000" d="M675,-122.2843C675,-143.3211 675,-175 675,-175 675,-175 476.8444,-175 476.8444,-175"/>
<polygon fill="#000000" stroke="#000000" points="476.8444,-171.5001 466.8444,-175 476.8443,-178.5001 476.8444,-171.5001"/>
</g>
<!-- AppComponent  -->
<g id="node5" class="node">
<title>AppComponent </title>
<polygon fill="#80b1d3" stroke="#000000" points="479.439,-252 370.561,-252 370.561,-216 479.439,-216 479.439,-252"/>
<text text-anchor="middle" x="425" y="-229.8" font-family="Times,serif" font-size="14.00" fill="#000000">AppComponent </text>
</g>
<!-- AppModule&#45;&gt;AppComponent  -->
<g id="edge4" class="edge">
<title>AppModule&#45;&gt;AppComponent </title>
<path fill="none" stroke="#000000" stroke-dasharray="1,5" d="M425,-187.1061C425,-187.1061 425,-205.991 425,-205.991"/>
<polygon fill="#000000" stroke="#000000" points="421.5001,-205.9909 425,-215.991 428.5001,-205.991 421.5001,-205.9909"/>
</g>
<!-- AccountModule -->
<g id="node3" class="node">
<title>AccountModule</title>
<polygon fill="#8dd3c7" stroke="#000000" points="598.4762,-122 595.4762,-126 574.4762,-126 571.4762,-122 491.5238,-122 491.5238,-86 598.4762,-86 598.4762,-122"/>
<text text-anchor="middle" x="545" y="-99.8" font-family="Times,serif" font-size="14.00" fill="#000000">AccountModule</text>
</g>
<!-- AccountModule&#45;&gt;AppModule -->
<g id="edge2" class="edge">
<title>AccountModule&#45;&gt;AppModule</title>
<path fill="none" stroke="#000000" d="M545,-122.0225C545,-139.3734 545,-163 545,-163 545,-163 476.9702,-163 476.9702,-163"/>
<polygon fill="#000000" stroke="#000000" points="476.9702,-159.5001 466.9702,-163 476.9701,-166.5001 476.9702,-159.5001"/>
</g>
<!-- PersonModule -->
<g id="node4" class="node">
<title>PersonModule</title>
<polygon fill="#8dd3c7" stroke="#000000" points="473.6528,-122 470.6528,-126 449.6528,-126 446.6528,-122 376.3472,-122 376.3472,-86 473.6528,-86 473.6528,-122"/>
<text text-anchor="middle" x="425" y="-99.8" font-family="Times,serif" font-size="14.00" fill="#000000">PersonModule</text>
</g>
<!-- PersonModule&#45;&gt;AppModule -->
<g id="edge3" class="edge">
<title>PersonModule&#45;&gt;AppModule</title>
<path fill="none" stroke="#000000" d="M425,-122.1061C425,-122.1061 425,-140.991 425,-140.991"/>
<polygon fill="#000000" stroke="#000000" points="421.5001,-140.9909 425,-150.991 428.5001,-140.991 421.5001,-140.9909"/>
</g>
<!-- ConfigService -->
<g id="node6" class="node">
<title>ConfigService</title>
<ellipse fill="#fdb462" stroke="#000000" cx="285" cy="-104" rx="66.6325" ry="18"/>
<text text-anchor="middle" x="285" y="-99.8" font-family="Times,serif" font-size="14.00" fill="#000000">ConfigService</text>
</g>
<!-- ConfigService&#45;&gt;AppModule -->
<g id="edge5" class="edge">
<title>ConfigService&#45;&gt;AppModule</title>
<path fill="none" stroke="#000000" d="M285,-122.0225C285,-139.3734 285,-163 285,-163 285,-163 372.9954,-163 372.9954,-163"/>
<polygon fill="#000000" stroke="#000000" points="372.9954,-166.5001 382.9954,-163 372.9953,-159.5001 372.9954,-166.5001"/>
</g>
<!-- SessionDataService -->
<g id="node7" class="node">
<title>SessionDataService</title>
<ellipse fill="#fdb462" stroke="#000000" cx="112" cy="-104" rx="87.9549" ry="18"/>
<text text-anchor="middle" x="112" y="-99.8" font-family="Times,serif" font-size="14.00" fill="#000000">SessionDataService</text>
</g>
<!-- SessionDataService&#45;&gt;AppModule -->
<g id="edge6" class="edge">
<title>SessionDataService&#45;&gt;AppModule</title>
<path fill="none" stroke="#000000" d="M112,-122.2843C112,-143.3211 112,-175 112,-175 112,-175 373.1122,-175 373.1122,-175"/>
<polygon fill="#000000" stroke="#000000" points="373.1122,-178.5001 383.1122,-175 373.1122,-171.5001 373.1122,-178.5001"/>
</g>
</g>
</svg>
